<svg xmlns="http://www.w3.org/2000/svg" xmlns:xlink="http://www.w3.org/1999/xlink" xmlns:lucid="lucid" width="1640" height="1018.34"><g transform="translate(-60 -170.83004659973136)" lucid:page-tab-id="A67SQIZ5hoxJ"><path d="M0 0h1760v1360H0z" fill="#fff"/><path d="M1680 680c0 270.16-219 489.17-489.17 489.17-270.16 0-489.17-219-489.17-489.17 0-270.16 219-489.17 489.17-489.17C1461 190.83 1680 409.83 1680 680z" stroke="#999" stroke-width="3" fill="#e5e5e5" fill-opacity=".6"/><use xlink:href="#a" transform="matrix(1,0,0,1,701.6600931994617,190.83004659973136) translate(470.31481481481484 500.1666666666667)"/><path d="M1058.34 680c0 270.16-219 489.17-489.17 489.17C299 1169.17 80 950.17 80 680c0-270.16 219-489.17 489.17-489.17 270.16 0 489.17 219 489.17 489.17z" stroke="#85bcfd" stroke-width="3" fill="#b5d7fd" fill-opacity=".6"/><use xlink:href="#b" transform="matrix(1,0,0,1,80,190.8300465997317) translate(470.31481481481484 500.1666666666667)"/><defs><path fill="#403e3e" d="M199 0l-22-63H83L61 0H9l90-248h61L250 0h-51zm-33-102l-36-108c-10 38-24 72-36 108h72" id="c"/><use transform="matrix(0.14814814814814817,0,0,0.14814814814814817,0,0)" xlink:href="#c" id="a"/><path fill="#403e3e" d="M182-130c37 4 62 22 62 59C244 23 116-4 24 0v-248c84 5 203-23 205 63 0 31-19 50-47 55zM76-148c40-3 101 13 101-30 0-44-60-28-101-31v61zm0 110c48-3 116 14 116-37 0-48-69-32-116-35v72" id="d"/><use transform="matrix(0.14814814814814817,0,0,0.14814814814814817,0,0)" xlink:href="#d" id="b"/></defs></g></svg>