<?xml version="1.0" encoding="utf-8" standalone="no"?>
<!DOCTYPE svg PUBLIC "-//W3C//DTD SVG 1.1//EN"
  "http://www.w3.org/Graphics/SVG/1.1/DTD/svg11.dtd">
<!-- Created with matplotlib (https://matplotlib.org/) -->
<svg height="360pt" version="1.1" viewBox="0 0 720 360" width="720pt" xmlns="http://www.w3.org/2000/svg" xmlns:xlink="http://www.w3.org/1999/xlink">
 <defs>
  <style type="text/css">
*{stroke-linecap:butt;stroke-linejoin:round;}
  </style>
 </defs>
 <g id="figure_1">
  <g id="patch_1">
   <path d="M 0 360 
L 720 360 
L 720 0 
L 0 0 
z
" style="fill:#ffffff;"/>
  </g>
  <g id="axes_1">
   <g id="patch_2">
    <path d="M 90 315 
L 648 315 
L 648 43.2 
L 90 43.2 
z
" style="fill:#e5e5e5;"/>
   </g>
   <g id="matplotlib.axis_1">
    <g id="xtick_1">
     <g id="line2d_1">
      <path clip-path="url(#p49a8b7eb92)" d="M 115.363636 315 
L 115.363636 43.2 
" style="fill:none;stroke:#ffffff;stroke-linecap:square;stroke-width:0.8;"/>
     </g>
     <g id="line2d_2">
      <defs>
       <path d="M 0 0 
L 0 3.5 
" id="mbe04932088" style="stroke:#555555;stroke-width:0.8;"/>
      </defs>
      <g>
       <use style="fill:#555555;stroke:#555555;stroke-width:0.8;" x="115.363636" xlink:href="#mbe04932088" y="315"/>
      </g>
     </g>
     <g id="text_1">
      <!-- −2 -->
      <defs>
       <path d="M 10.59375 35.5 
L 73.1875 35.5 
L 73.1875 27.203125 
L 10.59375 27.203125 
z
" id="DejaVuSans-8722"/>
       <path d="M 19.1875 8.296875 
L 53.609375 8.296875 
L 53.609375 0 
L 7.328125 0 
L 7.328125 8.296875 
Q 12.9375 14.109375 22.625 23.890625 
Q 32.328125 33.6875 34.8125 36.53125 
Q 39.546875 41.84375 41.421875 45.53125 
Q 43.3125 49.21875 43.3125 52.78125 
Q 43.3125 58.59375 39.234375 62.25 
Q 35.15625 65.921875 28.609375 65.921875 
Q 23.96875 65.921875 18.8125 64.3125 
Q 13.671875 62.703125 7.8125 59.421875 
L 7.8125 69.390625 
Q 13.765625 71.78125 18.9375 73 
Q 24.125 74.21875 28.421875 74.21875 
Q 39.75 74.21875 46.484375 68.546875 
Q 53.21875 62.890625 53.21875 53.421875 
Q 53.21875 48.921875 51.53125 44.890625 
Q 49.859375 40.875 45.40625 35.40625 
Q 44.1875 33.984375 37.640625 27.21875 
Q 31.109375 20.453125 19.1875 8.296875 
z
" id="DejaVuSans-50"/>
      </defs>
      <g style="fill:#555555;" transform="translate(103.569886 334.1575)scale(0.16 -0.16)">
       <use xlink:href="#DejaVuSans-8722"/>
       <use x="83.789062" xlink:href="#DejaVuSans-50"/>
      </g>
     </g>
    </g>
    <g id="xtick_2">
     <g id="line2d_3">
      <path clip-path="url(#p49a8b7eb92)" d="M 216.818182 315 
L 216.818182 43.2 
" style="fill:none;stroke:#ffffff;stroke-linecap:square;stroke-width:0.8;"/>
     </g>
     <g id="line2d_4">
      <g>
       <use style="fill:#555555;stroke:#555555;stroke-width:0.8;" x="216.818182" xlink:href="#mbe04932088" y="315"/>
      </g>
     </g>
     <g id="text_2">
      <!-- −1 -->
      <defs>
       <path d="M 12.40625 8.296875 
L 28.515625 8.296875 
L 28.515625 63.921875 
L 10.984375 60.40625 
L 10.984375 69.390625 
L 28.421875 72.90625 
L 38.28125 72.90625 
L 38.28125 8.296875 
L 54.390625 8.296875 
L 54.390625 0 
L 12.40625 0 
z
" id="DejaVuSans-49"/>
      </defs>
      <g style="fill:#555555;" transform="translate(205.024432 334.1575)scale(0.16 -0.16)">
       <use xlink:href="#DejaVuSans-8722"/>
       <use x="83.789062" xlink:href="#DejaVuSans-49"/>
      </g>
     </g>
    </g>
    <g id="xtick_3">
     <g id="line2d_5">
      <path clip-path="url(#p49a8b7eb92)" d="M 318.272727 315 
L 318.272727 43.2 
" style="fill:none;stroke:#ffffff;stroke-linecap:square;stroke-width:0.8;"/>
     </g>
     <g id="line2d_6">
      <g>
       <use style="fill:#555555;stroke:#555555;stroke-width:0.8;" x="318.272727" xlink:href="#mbe04932088" y="315"/>
      </g>
     </g>
     <g id="text_3">
      <!-- 0 -->
      <defs>
       <path d="M 31.78125 66.40625 
Q 24.171875 66.40625 20.328125 58.90625 
Q 16.5 51.421875 16.5 36.375 
Q 16.5 21.390625 20.328125 13.890625 
Q 24.171875 6.390625 31.78125 6.390625 
Q 39.453125 6.390625 43.28125 13.890625 
Q 47.125 21.390625 47.125 36.375 
Q 47.125 51.421875 43.28125 58.90625 
Q 39.453125 66.40625 31.78125 66.40625 
z
M 31.78125 74.21875 
Q 44.046875 74.21875 50.515625 64.515625 
Q 56.984375 54.828125 56.984375 36.375 
Q 56.984375 17.96875 50.515625 8.265625 
Q 44.046875 -1.421875 31.78125 -1.421875 
Q 19.53125 -1.421875 13.0625 8.265625 
Q 6.59375 17.96875 6.59375 36.375 
Q 6.59375 54.828125 13.0625 64.515625 
Q 19.53125 74.21875 31.78125 74.21875 
z
" id="DejaVuSans-48"/>
      </defs>
      <g style="fill:#555555;" transform="translate(313.182727 334.1575)scale(0.16 -0.16)">
       <use xlink:href="#DejaVuSans-48"/>
      </g>
     </g>
    </g>
    <g id="xtick_4">
     <g id="line2d_7">
      <path clip-path="url(#p49a8b7eb92)" d="M 419.727273 315 
L 419.727273 43.2 
" style="fill:none;stroke:#ffffff;stroke-linecap:square;stroke-width:0.8;"/>
     </g>
     <g id="line2d_8">
      <g>
       <use style="fill:#555555;stroke:#555555;stroke-width:0.8;" x="419.727273" xlink:href="#mbe04932088" y="315"/>
      </g>
     </g>
     <g id="text_4">
      <!-- 1 -->
      <g style="fill:#555555;" transform="translate(414.637273 334.1575)scale(0.16 -0.16)">
       <use xlink:href="#DejaVuSans-49"/>
      </g>
     </g>
    </g>
    <g id="xtick_5">
     <g id="line2d_9">
      <path clip-path="url(#p49a8b7eb92)" d="M 521.181818 315 
L 521.181818 43.2 
" style="fill:none;stroke:#ffffff;stroke-linecap:square;stroke-width:0.8;"/>
     </g>
     <g id="line2d_10">
      <g>
       <use style="fill:#555555;stroke:#555555;stroke-width:0.8;" x="521.181818" xlink:href="#mbe04932088" y="315"/>
      </g>
     </g>
     <g id="text_5">
      <!-- 2 -->
      <g style="fill:#555555;" transform="translate(516.091818 334.1575)scale(0.16 -0.16)">
       <use xlink:href="#DejaVuSans-50"/>
      </g>
     </g>
    </g>
    <g id="xtick_6">
     <g id="line2d_11">
      <path clip-path="url(#p49a8b7eb92)" d="M 622.636364 315 
L 622.636364 43.2 
" style="fill:none;stroke:#ffffff;stroke-linecap:square;stroke-width:0.8;"/>
     </g>
     <g id="line2d_12">
      <g>
       <use style="fill:#555555;stroke:#555555;stroke-width:0.8;" x="622.636364" xlink:href="#mbe04932088" y="315"/>
      </g>
     </g>
     <g id="text_6">
      <!-- 3 -->
      <defs>
       <path d="M 40.578125 39.3125 
Q 47.65625 37.796875 51.625 33 
Q 55.609375 28.21875 55.609375 21.1875 
Q 55.609375 10.40625 48.1875 4.484375 
Q 40.765625 -1.421875 27.09375 -1.421875 
Q 22.515625 -1.421875 17.65625 -0.515625 
Q 12.796875 0.390625 7.625 2.203125 
L 7.625 11.71875 
Q 11.71875 9.328125 16.59375 8.109375 
Q 21.484375 6.890625 26.8125 6.890625 
Q 36.078125 6.890625 40.9375 10.546875 
Q 45.796875 14.203125 45.796875 21.1875 
Q 45.796875 27.640625 41.28125 31.265625 
Q 36.765625 34.90625 28.71875 34.90625 
L 20.21875 34.90625 
L 20.21875 43.015625 
L 29.109375 43.015625 
Q 36.375 43.015625 40.234375 45.921875 
Q 44.09375 48.828125 44.09375 54.296875 
Q 44.09375 59.90625 40.109375 62.90625 
Q 36.140625 65.921875 28.71875 65.921875 
Q 24.65625 65.921875 20.015625 65.03125 
Q 15.375 64.15625 9.8125 62.3125 
L 9.8125 71.09375 
Q 15.4375 72.65625 20.34375 73.4375 
Q 25.25 74.21875 29.59375 74.21875 
Q 40.828125 74.21875 47.359375 69.109375 
Q 53.90625 64.015625 53.90625 55.328125 
Q 53.90625 49.265625 50.4375 45.09375 
Q 46.96875 40.921875 40.578125 39.3125 
z
" id="DejaVuSans-51"/>
      </defs>
      <g style="fill:#555555;" transform="translate(617.546364 334.1575)scale(0.16 -0.16)">
       <use xlink:href="#DejaVuSans-51"/>
      </g>
     </g>
    </g>
    <g id="text_7">
     <!-- $t$ -->
     <defs>
      <path d="M 42.28125 54.6875 
L 40.921875 47.703125 
L 23 47.703125 
L 17.1875 18.015625 
Q 16.890625 16.359375 16.75 15.234375 
Q 16.609375 14.109375 16.609375 13.484375 
Q 16.609375 10.359375 18.484375 8.9375 
Q 20.359375 7.515625 24.515625 7.515625 
L 33.59375 7.515625 
L 32.078125 0 
L 23.484375 0 
Q 15.484375 0 11.546875 3.125 
Q 7.625 6.25 7.625 12.59375 
Q 7.625 13.71875 7.765625 15.0625 
Q 7.90625 16.40625 8.203125 18.015625 
L 14.015625 47.703125 
L 6.390625 47.703125 
L 7.8125 54.6875 
L 15.28125 54.6875 
L 18.3125 70.21875 
L 27.296875 70.21875 
L 24.3125 54.6875 
z
" id="DejaVuSans-Oblique-116"/>
     </defs>
     <g style="fill:#555555;" transform="translate(366.6 350.603125)scale(0.12 -0.12)">
      <use transform="translate(0 0.78125)" xlink:href="#DejaVuSans-Oblique-116"/>
     </g>
    </g>
   </g>
   <g id="matplotlib.axis_2">
    <g id="ytick_1">
     <g id="line2d_13">
      <path clip-path="url(#p49a8b7eb92)" d="M 90 302.645455 
L 648 302.645455 
" style="fill:none;stroke:#ffffff;stroke-linecap:square;stroke-width:0.8;"/>
     </g>
     <g id="line2d_14">
      <defs>
       <path d="M 0 0 
L -3.5 0 
" id="m8a2fe3c0eb" style="stroke:#555555;stroke-width:0.8;"/>
      </defs>
      <g>
       <use style="fill:#555555;stroke:#555555;stroke-width:0.8;" x="90" xlink:href="#m8a2fe3c0eb" y="302.645455"/>
      </g>
     </g>
     <g id="text_8">
      <!-- 0.0 -->
      <defs>
       <path d="M 10.6875 12.40625 
L 21 12.40625 
L 21 0 
L 10.6875 0 
z
" id="DejaVuSans-46"/>
      </defs>
      <g style="fill:#555555;" transform="translate(57.555 308.724205)scale(0.16 -0.16)">
       <use xlink:href="#DejaVuSans-48"/>
       <use x="63.623047" xlink:href="#DejaVuSans-46"/>
       <use x="95.410156" xlink:href="#DejaVuSans-48"/>
      </g>
     </g>
    </g>
    <g id="ytick_2">
     <g id="line2d_15">
      <path clip-path="url(#p49a8b7eb92)" d="M 90 253.227273 
L 648 253.227273 
" style="fill:none;stroke:#ffffff;stroke-linecap:square;stroke-width:0.8;"/>
     </g>
     <g id="line2d_16">
      <g>
       <use style="fill:#555555;stroke:#555555;stroke-width:0.8;" x="90" xlink:href="#m8a2fe3c0eb" y="253.227273"/>
      </g>
     </g>
     <g id="text_9">
      <!-- 0.2 -->
      <g style="fill:#555555;" transform="translate(57.555 259.306023)scale(0.16 -0.16)">
       <use xlink:href="#DejaVuSans-48"/>
       <use x="63.623047" xlink:href="#DejaVuSans-46"/>
       <use x="95.410156" xlink:href="#DejaVuSans-50"/>
      </g>
     </g>
    </g>
    <g id="ytick_3">
     <g id="line2d_17">
      <path clip-path="url(#p49a8b7eb92)" d="M 90 203.809091 
L 648 203.809091 
" style="fill:none;stroke:#ffffff;stroke-linecap:square;stroke-width:0.8;"/>
     </g>
     <g id="line2d_18">
      <g>
       <use style="fill:#555555;stroke:#555555;stroke-width:0.8;" x="90" xlink:href="#m8a2fe3c0eb" y="203.809091"/>
      </g>
     </g>
     <g id="text_10">
      <!-- 0.4 -->
      <defs>
       <path d="M 37.796875 64.3125 
L 12.890625 25.390625 
L 37.796875 25.390625 
z
M 35.203125 72.90625 
L 47.609375 72.90625 
L 47.609375 25.390625 
L 58.015625 25.390625 
L 58.015625 17.1875 
L 47.609375 17.1875 
L 47.609375 0 
L 37.796875 0 
L 37.796875 17.1875 
L 4.890625 17.1875 
L 4.890625 26.703125 
z
" id="DejaVuSans-52"/>
      </defs>
      <g style="fill:#555555;" transform="translate(57.555 209.887841)scale(0.16 -0.16)">
       <use xlink:href="#DejaVuSans-48"/>
       <use x="63.623047" xlink:href="#DejaVuSans-46"/>
       <use x="95.410156" xlink:href="#DejaVuSans-52"/>
      </g>
     </g>
    </g>
    <g id="ytick_4">
     <g id="line2d_19">
      <path clip-path="url(#p49a8b7eb92)" d="M 90 154.390909 
L 648 154.390909 
" style="fill:none;stroke:#ffffff;stroke-linecap:square;stroke-width:0.8;"/>
     </g>
     <g id="line2d_20">
      <g>
       <use style="fill:#555555;stroke:#555555;stroke-width:0.8;" x="90" xlink:href="#m8a2fe3c0eb" y="154.390909"/>
      </g>
     </g>
     <g id="text_11">
      <!-- 0.6 -->
      <defs>
       <path d="M 33.015625 40.375 
Q 26.375 40.375 22.484375 35.828125 
Q 18.609375 31.296875 18.609375 23.390625 
Q 18.609375 15.53125 22.484375 10.953125 
Q 26.375 6.390625 33.015625 6.390625 
Q 39.65625 6.390625 43.53125 10.953125 
Q 47.40625 15.53125 47.40625 23.390625 
Q 47.40625 31.296875 43.53125 35.828125 
Q 39.65625 40.375 33.015625 40.375 
z
M 52.59375 71.296875 
L 52.59375 62.3125 
Q 48.875 64.0625 45.09375 64.984375 
Q 41.3125 65.921875 37.59375 65.921875 
Q 27.828125 65.921875 22.671875 59.328125 
Q 17.53125 52.734375 16.796875 39.40625 
Q 19.671875 43.65625 24.015625 45.921875 
Q 28.375 48.1875 33.59375 48.1875 
Q 44.578125 48.1875 50.953125 41.515625 
Q 57.328125 34.859375 57.328125 23.390625 
Q 57.328125 12.15625 50.6875 5.359375 
Q 44.046875 -1.421875 33.015625 -1.421875 
Q 20.359375 -1.421875 13.671875 8.265625 
Q 6.984375 17.96875 6.984375 36.375 
Q 6.984375 53.65625 15.1875 63.9375 
Q 23.390625 74.21875 37.203125 74.21875 
Q 40.921875 74.21875 44.703125 73.484375 
Q 48.484375 72.75 52.59375 71.296875 
z
" id="DejaVuSans-54"/>
      </defs>
      <g style="fill:#555555;" transform="translate(57.555 160.469659)scale(0.16 -0.16)">
       <use xlink:href="#DejaVuSans-48"/>
       <use x="63.623047" xlink:href="#DejaVuSans-46"/>
       <use x="95.410156" xlink:href="#DejaVuSans-54"/>
      </g>
     </g>
    </g>
    <g id="ytick_5">
     <g id="line2d_21">
      <path clip-path="url(#p49a8b7eb92)" d="M 90 104.972727 
L 648 104.972727 
" style="fill:none;stroke:#ffffff;stroke-linecap:square;stroke-width:0.8;"/>
     </g>
     <g id="line2d_22">
      <g>
       <use style="fill:#555555;stroke:#555555;stroke-width:0.8;" x="90" xlink:href="#m8a2fe3c0eb" y="104.972727"/>
      </g>
     </g>
     <g id="text_12">
      <!-- 0.8 -->
      <defs>
       <path d="M 31.78125 34.625 
Q 24.75 34.625 20.71875 30.859375 
Q 16.703125 27.09375 16.703125 20.515625 
Q 16.703125 13.921875 20.71875 10.15625 
Q 24.75 6.390625 31.78125 6.390625 
Q 38.8125 6.390625 42.859375 10.171875 
Q 46.921875 13.96875 46.921875 20.515625 
Q 46.921875 27.09375 42.890625 30.859375 
Q 38.875 34.625 31.78125 34.625 
z
M 21.921875 38.8125 
Q 15.578125 40.375 12.03125 44.71875 
Q 8.5 49.078125 8.5 55.328125 
Q 8.5 64.0625 14.71875 69.140625 
Q 20.953125 74.21875 31.78125 74.21875 
Q 42.671875 74.21875 48.875 69.140625 
Q 55.078125 64.0625 55.078125 55.328125 
Q 55.078125 49.078125 51.53125 44.71875 
Q 48 40.375 41.703125 38.8125 
Q 48.828125 37.15625 52.796875 32.3125 
Q 56.78125 27.484375 56.78125 20.515625 
Q 56.78125 9.90625 50.3125 4.234375 
Q 43.84375 -1.421875 31.78125 -1.421875 
Q 19.734375 -1.421875 13.25 4.234375 
Q 6.78125 9.90625 6.78125 20.515625 
Q 6.78125 27.484375 10.78125 32.3125 
Q 14.796875 37.15625 21.921875 38.8125 
z
M 18.3125 54.390625 
Q 18.3125 48.734375 21.84375 45.5625 
Q 25.390625 42.390625 31.78125 42.390625 
Q 38.140625 42.390625 41.71875 45.5625 
Q 45.3125 48.734375 45.3125 54.390625 
Q 45.3125 60.0625 41.71875 63.234375 
Q 38.140625 66.40625 31.78125 66.40625 
Q 25.390625 66.40625 21.84375 63.234375 
Q 18.3125 60.0625 18.3125 54.390625 
z
" id="DejaVuSans-56"/>
      </defs>
      <g style="fill:#555555;" transform="translate(57.555 111.051477)scale(0.16 -0.16)">
       <use xlink:href="#DejaVuSans-48"/>
       <use x="63.623047" xlink:href="#DejaVuSans-46"/>
       <use x="95.410156" xlink:href="#DejaVuSans-56"/>
      </g>
     </g>
    </g>
    <g id="ytick_6">
     <g id="line2d_23">
      <path clip-path="url(#p49a8b7eb92)" d="M 90 55.554545 
L 648 55.554545 
" style="fill:none;stroke:#ffffff;stroke-linecap:square;stroke-width:0.8;"/>
     </g>
     <g id="line2d_24">
      <g>
       <use style="fill:#555555;stroke:#555555;stroke-width:0.8;" x="90" xlink:href="#m8a2fe3c0eb" y="55.554545"/>
      </g>
     </g>
     <g id="text_13">
      <!-- 1.0 -->
      <g style="fill:#555555;" transform="translate(57.555 61.633295)scale(0.16 -0.16)">
       <use xlink:href="#DejaVuSans-49"/>
       <use x="63.623047" xlink:href="#DejaVuSans-46"/>
       <use x="95.410156" xlink:href="#DejaVuSans-48"/>
      </g>
     </g>
    </g>
    <g id="text_14">
     <!-- CDF $F_X(t)$ -->
     <defs>
      <path d="M 64.40625 67.28125 
L 64.40625 56.890625 
Q 59.421875 61.53125 53.78125 63.8125 
Q 48.140625 66.109375 41.796875 66.109375 
Q 29.296875 66.109375 22.65625 58.46875 
Q 16.015625 50.828125 16.015625 36.375 
Q 16.015625 21.96875 22.65625 14.328125 
Q 29.296875 6.6875 41.796875 6.6875 
Q 48.140625 6.6875 53.78125 8.984375 
Q 59.421875 11.28125 64.40625 15.921875 
L 64.40625 5.609375 
Q 59.234375 2.09375 53.4375 0.328125 
Q 47.65625 -1.421875 41.21875 -1.421875 
Q 24.65625 -1.421875 15.125 8.703125 
Q 5.609375 18.84375 5.609375 36.375 
Q 5.609375 53.953125 15.125 64.078125 
Q 24.65625 74.21875 41.21875 74.21875 
Q 47.75 74.21875 53.53125 72.484375 
Q 59.328125 70.75 64.40625 67.28125 
z
" id="DejaVuSans-67"/>
      <path d="M 19.671875 64.796875 
L 19.671875 8.109375 
L 31.59375 8.109375 
Q 46.6875 8.109375 53.6875 14.9375 
Q 60.6875 21.78125 60.6875 36.53125 
Q 60.6875 51.171875 53.6875 57.984375 
Q 46.6875 64.796875 31.59375 64.796875 
z
M 9.8125 72.90625 
L 30.078125 72.90625 
Q 51.265625 72.90625 61.171875 64.09375 
Q 71.09375 55.28125 71.09375 36.53125 
Q 71.09375 17.671875 61.125 8.828125 
Q 51.171875 0 30.078125 0 
L 9.8125 0 
z
" id="DejaVuSans-68"/>
      <path d="M 9.8125 72.90625 
L 51.703125 72.90625 
L 51.703125 64.59375 
L 19.671875 64.59375 
L 19.671875 43.109375 
L 48.578125 43.109375 
L 48.578125 34.8125 
L 19.671875 34.8125 
L 19.671875 0 
L 9.8125 0 
z
" id="DejaVuSans-70"/>
      <path id="DejaVuSans-32"/>
      <path d="M 16.890625 72.90625 
L 58.6875 72.90625 
L 57.078125 64.59375 
L 25.09375 64.59375 
L 20.90625 43.109375 
L 49.8125 43.109375 
L 48.1875 34.8125 
L 19.28125 34.8125 
L 12.5 0 
L 2.6875 0 
z
" id="DejaVuSans-Oblique-70"/>
      <path d="M 13.71875 72.90625 
L 23.6875 72.90625 
L 36.1875 46.578125 
L 58.796875 72.90625 
L 70.3125 72.90625 
L 40.28125 38.09375 
L 58.40625 0 
L 48.484375 0 
L 33.796875 30.71875 
L 7.171875 0 
L -4.296875 0 
L 29.78125 39.203125 
z
" id="DejaVuSans-Oblique-88"/>
      <path d="M 31 75.875 
Q 24.46875 64.65625 21.28125 53.65625 
Q 18.109375 42.671875 18.109375 31.390625 
Q 18.109375 20.125 21.3125 9.0625 
Q 24.515625 -2 31 -13.1875 
L 23.1875 -13.1875 
Q 15.875 -1.703125 12.234375 9.375 
Q 8.59375 20.453125 8.59375 31.390625 
Q 8.59375 42.28125 12.203125 53.3125 
Q 15.828125 64.359375 23.1875 75.875 
z
" id="DejaVuSans-40"/>
      <path d="M 8.015625 75.875 
L 15.828125 75.875 
Q 23.140625 64.359375 26.78125 53.3125 
Q 30.421875 42.28125 30.421875 31.390625 
Q 30.421875 20.453125 26.78125 9.375 
Q 23.140625 -1.703125 15.828125 -13.1875 
L 8.015625 -13.1875 
Q 14.5 -2 17.703125 9.0625 
Q 20.90625 20.125 20.90625 31.390625 
Q 20.90625 42.671875 17.703125 53.65625 
Q 14.5 64.65625 8.015625 75.875 
z
" id="DejaVuSans-41"/>
     </defs>
     <g style="fill:#555555;" transform="translate(51.059375 206.82)rotate(-90)scale(0.12 -0.12)">
      <use transform="translate(0 0.125)" xlink:href="#DejaVuSans-67"/>
      <use transform="translate(69.824219 0.125)" xlink:href="#DejaVuSans-68"/>
      <use transform="translate(146.826172 0.125)" xlink:href="#DejaVuSans-70"/>
      <use transform="translate(204.345703 0.125)" xlink:href="#DejaVuSans-32"/>
      <use transform="translate(236.132812 0.125)" xlink:href="#DejaVuSans-Oblique-70"/>
      <use transform="translate(293.652344 -16.28125)scale(0.7)" xlink:href="#DejaVuSans-Oblique-88"/>
      <use transform="translate(344.34082 0.125)" xlink:href="#DejaVuSans-40"/>
      <use transform="translate(383.354492 0.125)" xlink:href="#DejaVuSans-Oblique-116"/>
      <use transform="translate(422.563477 0.125)" xlink:href="#DejaVuSans-41"/>
     </g>
    </g>
   </g>
   <g id="PathCollection_1">
    <path clip-path="url(#p49a8b7eb92)" d="M 318.272727 307.388871 
C 319.530696 307.388871 320.737311 306.889075 321.626829 305.999557 
C 322.516347 305.110038 323.016144 303.903423 323.016144 302.645455 
C 323.016144 301.387486 322.516347 300.180871 321.626829 299.291353 
C 320.737311 298.401834 319.530696 297.902038 318.272727 297.902038 
C 317.014759 297.902038 315.808144 298.401834 314.918625 299.291353 
C 314.029107 300.180871 313.529311 301.387486 313.529311 302.645455 
C 313.529311 303.903423 314.029107 305.110038 314.918625 305.999557 
C 315.808144 306.889075 317.014759 307.388871 318.272727 307.388871 
z
" style="fill:none;stroke:#4682b4;stroke-width:2;"/>
   </g>
   <g id="PathCollection_2">
    <defs>
     <path d="M 0 4.743416 
C 1.257969 4.743416 2.464584 4.24362 3.354102 3.354102 
C 4.24362 2.464584 4.743416 1.257969 4.743416 0 
C 4.743416 -1.257969 4.24362 -2.464584 3.354102 -3.354102 
C 2.464584 -4.24362 1.257969 -4.743416 0 -4.743416 
C -1.257969 -4.743416 -2.464584 -4.24362 -3.354102 -3.354102 
C -4.24362 -2.464584 -4.743416 -1.257969 -4.743416 0 
C -4.743416 1.257969 -4.24362 2.464584 -3.354102 3.354102 
C -2.464584 4.24362 -1.257969 4.743416 0 4.743416 
z
" id="m3becd07661" style="stroke:#4682b4;stroke-width:0.5;"/>
    </defs>
    <g clip-path="url(#p49a8b7eb92)">
     <use style="fill:#4682b4;stroke:#4682b4;stroke-width:0.5;" x="318.272727" xlink:href="#m3becd07661" y="154.390909"/>
    </g>
   </g>
   <g id="PathCollection_3">
    <path clip-path="url(#p49a8b7eb92)" d="M 419.727273 159.134326 
C 420.985241 159.134326 422.191856 158.634529 423.081375 157.745011 
C 423.970893 156.855493 424.470689 155.648878 424.470689 154.390909 
C 424.470689 153.13294 423.970893 151.926325 423.081375 151.036807 
C 422.191856 150.147289 420.985241 149.647493 419.727273 149.647493 
C 418.469304 149.647493 417.262689 150.147289 416.373171 151.036807 
C 415.483653 151.926325 414.983856 153.13294 414.983856 154.390909 
C 414.983856 155.648878 415.483653 156.855493 416.373171 157.745011 
C 417.262689 158.634529 418.469304 159.134326 419.727273 159.134326 
z
" style="fill:none;stroke:#4682b4;stroke-width:2;"/>
   </g>
   <g id="PathCollection_4">
    <g clip-path="url(#p49a8b7eb92)">
     <use style="fill:#4682b4;stroke:#4682b4;stroke-width:0.5;" x="419.727273" xlink:href="#m3becd07661" y="55.554545"/>
    </g>
   </g>
   <g id="line2d_25">
    <path clip-path="url(#p49a8b7eb92)" d="M 115.363636 302.645455 
L 117.361983 302.645455 
L 119.360331 302.645455 
L 121.358678 302.645455 
L 123.357025 302.645455 
L 125.355372 302.645455 
L 127.353719 302.645455 
L 129.352066 302.645455 
L 131.350413 302.645455 
L 133.34876 302.645455 
L 135.347107 302.645455 
L 137.345455 302.645455 
L 139.343802 302.645455 
L 141.342149 302.645455 
L 143.340496 302.645455 
L 145.338843 302.645455 
L 147.33719 302.645455 
L 149.335537 302.645455 
L 151.333884 302.645455 
L 153.332231 302.645455 
L 155.330579 302.645455 
L 157.328926 302.645455 
L 159.327273 302.645455 
L 161.32562 302.645455 
L 163.323967 302.645455 
L 165.322314 302.645455 
L 167.320661 302.645455 
L 169.319008 302.645455 
L 171.317355 302.645455 
L 173.315702 302.645455 
L 175.31405 302.645455 
L 177.312397 302.645455 
L 179.310744 302.645455 
L 181.309091 302.645455 
L 183.307438 302.645455 
L 185.305785 302.645455 
L 187.304132 302.645455 
L 189.302479 302.645455 
L 191.300826 302.645455 
L 193.299174 302.645455 
L 195.297521 302.645455 
L 197.295868 302.645455 
L 199.294215 302.645455 
L 201.292562 302.645455 
L 203.290909 302.645455 
L 205.289256 302.645455 
L 207.287603 302.645455 
L 209.28595 302.645455 
L 211.284298 302.645455 
L 213.282645 302.645455 
L 215.280992 302.645455 
L 217.279339 302.645455 
L 219.277686 302.645455 
L 221.276033 302.645455 
L 223.27438 302.645455 
L 225.272727 302.645455 
L 227.271074 302.645455 
L 229.269421 302.645455 
L 231.267769 302.645455 
L 233.266116 302.645455 
L 235.264463 302.645455 
L 237.26281 302.645455 
L 239.261157 302.645455 
L 241.259504 302.645455 
L 243.257851 302.645455 
L 245.256198 302.645455 
L 247.254545 302.645455 
L 249.252893 302.645455 
L 251.25124 302.645455 
L 253.249587 302.645455 
L 255.247934 302.645455 
L 257.246281 302.645455 
L 259.244628 302.645455 
L 261.242975 302.645455 
L 263.241322 302.645455 
L 265.239669 302.645455 
L 267.238017 302.645455 
L 269.236364 302.645455 
L 271.234711 302.645455 
L 273.233058 302.645455 
L 275.231405 302.645455 
L 277.229752 302.645455 
L 279.228099 302.645455 
L 281.226446 302.645455 
L 283.224793 302.645455 
L 285.22314 302.645455 
L 287.221488 302.645455 
L 289.219835 302.645455 
L 291.218182 302.645455 
L 293.216529 302.645455 
L 295.214876 302.645455 
L 297.213223 302.645455 
L 299.21157 302.645455 
L 301.209917 302.645455 
L 303.208264 302.645455 
L 305.206612 302.645455 
L 307.204959 302.645455 
L 309.203306 302.645455 
L 311.201653 302.645455 
L 313.2 302.645455 
" style="fill:none;stroke:#4682b4;stroke-linecap:square;stroke-width:4;"/>
   </g>
   <g id="line2d_26">
    <path clip-path="url(#p49a8b7eb92)" d="M 323.345455 154.390909 
L 324.267769 154.390909 
L 325.190083 154.390909 
L 326.112397 154.390909 
L 327.034711 154.390909 
L 327.957025 154.390909 
L 328.879339 154.390909 
L 329.801653 154.390909 
L 330.723967 154.390909 
L 331.646281 154.390909 
L 332.568595 154.390909 
L 333.490909 154.390909 
L 334.413223 154.390909 
L 335.335537 154.390909 
L 336.257851 154.390909 
L 337.180165 154.390909 
L 338.102479 154.390909 
L 339.024793 154.390909 
L 339.947107 154.390909 
L 340.869421 154.390909 
L 341.791736 154.390909 
L 342.71405 154.390909 
L 343.636364 154.390909 
L 344.558678 154.390909 
L 345.480992 154.390909 
L 346.403306 154.390909 
L 347.32562 154.390909 
L 348.247934 154.390909 
L 349.170248 154.390909 
L 350.092562 154.390909 
L 351.014876 154.390909 
L 351.93719 154.390909 
L 352.859504 154.390909 
L 353.781818 154.390909 
L 354.704132 154.390909 
L 355.626446 154.390909 
L 356.54876 154.390909 
L 357.471074 154.390909 
L 358.393388 154.390909 
L 359.315702 154.390909 
L 360.238017 154.390909 
L 361.160331 154.390909 
L 362.082645 154.390909 
L 363.004959 154.390909 
L 363.927273 154.390909 
L 364.849587 154.390909 
L 365.771901 154.390909 
L 366.694215 154.390909 
L 367.616529 154.390909 
L 368.538843 154.390909 
L 369.461157 154.390909 
L 370.383471 154.390909 
L 371.305785 154.390909 
L 372.228099 154.390909 
L 373.150413 154.390909 
L 374.072727 154.390909 
L 374.995041 154.390909 
L 375.917355 154.390909 
L 376.839669 154.390909 
L 377.761983 154.390909 
L 378.684298 154.390909 
L 379.606612 154.390909 
L 380.528926 154.390909 
L 381.45124 154.390909 
L 382.373554 154.390909 
L 383.295868 154.390909 
L 384.218182 154.390909 
L 385.140496 154.390909 
L 386.06281 154.390909 
L 386.985124 154.390909 
L 387.907438 154.390909 
L 388.829752 154.390909 
L 389.752066 154.390909 
L 390.67438 154.390909 
L 391.596694 154.390909 
L 392.519008 154.390909 
L 393.441322 154.390909 
L 394.363636 154.390909 
L 395.28595 154.390909 
L 396.208264 154.390909 
L 397.130579 154.390909 
L 398.052893 154.390909 
L 398.975207 154.390909 
L 399.897521 154.390909 
L 400.819835 154.390909 
L 401.742149 154.390909 
L 402.664463 154.390909 
L 403.586777 154.390909 
L 404.509091 154.390909 
L 405.431405 154.390909 
L 406.353719 154.390909 
L 407.276033 154.390909 
L 408.198347 154.390909 
L 409.120661 154.390909 
L 410.042975 154.390909 
L 410.965289 154.390909 
L 411.887603 154.390909 
L 412.809917 154.390909 
L 413.732231 154.390909 
L 414.654545 154.390909 
" style="fill:none;stroke:#4682b4;stroke-linecap:square;stroke-width:4;"/>
   </g>
   <g id="line2d_27">
    <path clip-path="url(#p49a8b7eb92)" d="M 419.727273 55.554545 
L 421.77686 55.554545 
L 423.826446 55.554545 
L 425.876033 55.554545 
L 427.92562 55.554545 
L 429.975207 55.554545 
L 432.024793 55.554545 
L 434.07438 55.554545 
L 436.123967 55.554545 
L 438.173554 55.554545 
L 440.22314 55.554545 
L 442.272727 55.554545 
L 444.322314 55.554545 
L 446.371901 55.554545 
L 448.421488 55.554545 
L 450.471074 55.554545 
L 452.520661 55.554545 
L 454.570248 55.554545 
L 456.619835 55.554545 
L 458.669421 55.554545 
L 460.719008 55.554545 
L 462.768595 55.554545 
L 464.818182 55.554545 
L 466.867769 55.554545 
L 468.917355 55.554545 
L 470.966942 55.554545 
L 473.016529 55.554545 
L 475.066116 55.554545 
L 477.115702 55.554545 
L 479.165289 55.554545 
L 481.214876 55.554545 
L 483.264463 55.554545 
L 485.31405 55.554545 
L 487.363636 55.554545 
L 489.413223 55.554545 
L 491.46281 55.554545 
L 493.512397 55.554545 
L 495.561983 55.554545 
L 497.61157 55.554545 
L 499.661157 55.554545 
L 501.710744 55.554545 
L 503.760331 55.554545 
L 505.809917 55.554545 
L 507.859504 55.554545 
L 509.909091 55.554545 
L 511.958678 55.554545 
L 514.008264 55.554545 
L 516.057851 55.554545 
L 518.107438 55.554545 
L 520.157025 55.554545 
L 522.206612 55.554545 
L 524.256198 55.554545 
L 526.305785 55.554545 
L 528.355372 55.554545 
L 530.404959 55.554545 
L 532.454545 55.554545 
L 534.504132 55.554545 
L 536.553719 55.554545 
L 538.603306 55.554545 
L 540.652893 55.554545 
L 542.702479 55.554545 
L 544.752066 55.554545 
L 546.801653 55.554545 
L 548.85124 55.554545 
L 550.900826 55.554545 
L 552.950413 55.554545 
L 555 55.554545 
L 557.049587 55.554545 
L 559.099174 55.554545 
L 561.14876 55.554545 
L 563.198347 55.554545 
L 565.247934 55.554545 
L 567.297521 55.554545 
L 569.347107 55.554545 
L 571.396694 55.554545 
L 573.446281 55.554545 
L 575.495868 55.554545 
L 577.545455 55.554545 
L 579.595041 55.554545 
L 581.644628 55.554545 
L 583.694215 55.554545 
L 585.743802 55.554545 
L 587.793388 55.554545 
L 589.842975 55.554545 
L 591.892562 55.554545 
L 593.942149 55.554545 
L 595.991736 55.554545 
L 598.041322 55.554545 
L 600.090909 55.554545 
L 602.140496 55.554545 
L 604.190083 55.554545 
L 606.239669 55.554545 
L 608.289256 55.554545 
L 610.338843 55.554545 
L 612.38843 55.554545 
L 614.438017 55.554545 
L 616.487603 55.554545 
L 618.53719 55.554545 
L 620.586777 55.554545 
L 622.636364 55.554545 
" style="fill:none;stroke:#4682b4;stroke-linecap:square;stroke-width:4;"/>
   </g>
   <g id="patch_3">
    <path d="M 90 315 
L 90 43.2 
" style="fill:none;stroke:#ffffff;stroke-linecap:square;stroke-linejoin:miter;"/>
   </g>
   <g id="patch_4">
    <path d="M 648 315 
L 648 43.2 
" style="fill:none;stroke:#ffffff;stroke-linecap:square;stroke-linejoin:miter;"/>
   </g>
   <g id="patch_5">
    <path d="M 90 315 
L 648 315 
" style="fill:none;stroke:#ffffff;stroke-linecap:square;stroke-linejoin:miter;"/>
   </g>
   <g id="patch_6">
    <path d="M 90 43.2 
L 648 43.2 
" style="fill:none;stroke:#ffffff;stroke-linecap:square;stroke-linejoin:miter;"/>
   </g>
  </g>
 </g>
 <defs>
  <clipPath id="p49a8b7eb92">
   <rect height="271.8" width="558" x="90" y="43.2"/>
  </clipPath>
 </defs>
</svg>
