<?xml version="1.0" encoding="utf-8" standalone="no"?>
<!DOCTYPE svg PUBLIC "-//W3C//DTD SVG 1.1//EN"
  "http://www.w3.org/Graphics/SVG/1.1/DTD/svg11.dtd">
<!-- Created with matplotlib (https://matplotlib.org/) -->
<svg height="360pt" version="1.1" viewBox="0 0 720 360" width="720pt" xmlns="http://www.w3.org/2000/svg" xmlns:xlink="http://www.w3.org/1999/xlink">
 <defs>
  <style type="text/css">
*{stroke-linecap:butt;stroke-linejoin:round;}
  </style>
 </defs>
 <g id="figure_1">
  <g id="patch_1">
   <path d="M 0 360 
L 720 360 
L 720 0 
L 0 0 
z
" style="fill:#ffffff;"/>
  </g>
  <g id="axes_1">
   <g id="patch_2">
    <path d="M 90 315 
L 648 315 
L 648 43.2 
L 90 43.2 
z
" style="fill:#e5e5e5;"/>
   </g>
   <g id="matplotlib.axis_1">
    <g id="xtick_1">
     <g id="line2d_1">
      <path clip-path="url(#pb8188fb261)" d="M 115.363636 315 
L 115.363636 43.2 
" style="fill:none;stroke:#ffffff;stroke-linecap:square;stroke-width:0.8;"/>
     </g>
     <g id="line2d_2">
      <defs>
       <path d="M 0 0 
L 0 3.5 
" id="m22655f036e" style="stroke:#555555;stroke-width:0.8;"/>
      </defs>
      <g>
       <use style="fill:#555555;stroke:#555555;stroke-width:0.8;" x="115.363636" xlink:href="#m22655f036e" y="315"/>
      </g>
     </g>
     <g id="text_1">
      <!-- −3 -->
      <defs>
       <path d="M 10.59375 35.5 
L 73.1875 35.5 
L 73.1875 27.203125 
L 10.59375 27.203125 
z
" id="DejaVuSans-8722"/>
       <path d="M 40.578125 39.3125 
Q 47.65625 37.796875 51.625 33 
Q 55.609375 28.21875 55.609375 21.1875 
Q 55.609375 10.40625 48.1875 4.484375 
Q 40.765625 -1.421875 27.09375 -1.421875 
Q 22.515625 -1.421875 17.65625 -0.515625 
Q 12.796875 0.390625 7.625 2.203125 
L 7.625 11.71875 
Q 11.71875 9.328125 16.59375 8.109375 
Q 21.484375 6.890625 26.8125 6.890625 
Q 36.078125 6.890625 40.9375 10.546875 
Q 45.796875 14.203125 45.796875 21.1875 
Q 45.796875 27.640625 41.28125 31.265625 
Q 36.765625 34.90625 28.71875 34.90625 
L 20.21875 34.90625 
L 20.21875 43.015625 
L 29.109375 43.015625 
Q 36.375 43.015625 40.234375 45.921875 
Q 44.09375 48.828125 44.09375 54.296875 
Q 44.09375 59.90625 40.109375 62.90625 
Q 36.140625 65.921875 28.71875 65.921875 
Q 24.65625 65.921875 20.015625 65.03125 
Q 15.375 64.15625 9.8125 62.3125 
L 9.8125 71.09375 
Q 15.4375 72.65625 20.34375 73.4375 
Q 25.25 74.21875 29.59375 74.21875 
Q 40.828125 74.21875 47.359375 69.109375 
Q 53.90625 64.015625 53.90625 55.328125 
Q 53.90625 49.265625 50.4375 45.09375 
Q 46.96875 40.921875 40.578125 39.3125 
z
" id="DejaVuSans-51"/>
      </defs>
      <g style="fill:#555555;" transform="translate(103.569886 334.1575)scale(0.16 -0.16)">
       <use xlink:href="#DejaVuSans-8722"/>
       <use x="83.789062" xlink:href="#DejaVuSans-51"/>
      </g>
     </g>
    </g>
    <g id="xtick_2">
     <g id="line2d_3">
      <path clip-path="url(#pb8188fb261)" d="M 178.772727 315 
L 178.772727 43.2 
" style="fill:none;stroke:#ffffff;stroke-linecap:square;stroke-width:0.8;"/>
     </g>
     <g id="line2d_4">
      <g>
       <use style="fill:#555555;stroke:#555555;stroke-width:0.8;" x="178.772727" xlink:href="#m22655f036e" y="315"/>
      </g>
     </g>
     <g id="text_2">
      <!-- −2 -->
      <defs>
       <path d="M 19.1875 8.296875 
L 53.609375 8.296875 
L 53.609375 0 
L 7.328125 0 
L 7.328125 8.296875 
Q 12.9375 14.109375 22.625 23.890625 
Q 32.328125 33.6875 34.8125 36.53125 
Q 39.546875 41.84375 41.421875 45.53125 
Q 43.3125 49.21875 43.3125 52.78125 
Q 43.3125 58.59375 39.234375 62.25 
Q 35.15625 65.921875 28.609375 65.921875 
Q 23.96875 65.921875 18.8125 64.3125 
Q 13.671875 62.703125 7.8125 59.421875 
L 7.8125 69.390625 
Q 13.765625 71.78125 18.9375 73 
Q 24.125 74.21875 28.421875 74.21875 
Q 39.75 74.21875 46.484375 68.546875 
Q 53.21875 62.890625 53.21875 53.421875 
Q 53.21875 48.921875 51.53125 44.890625 
Q 49.859375 40.875 45.40625 35.40625 
Q 44.1875 33.984375 37.640625 27.21875 
Q 31.109375 20.453125 19.1875 8.296875 
z
" id="DejaVuSans-50"/>
      </defs>
      <g style="fill:#555555;" transform="translate(166.978977 334.1575)scale(0.16 -0.16)">
       <use xlink:href="#DejaVuSans-8722"/>
       <use x="83.789062" xlink:href="#DejaVuSans-50"/>
      </g>
     </g>
    </g>
    <g id="xtick_3">
     <g id="line2d_5">
      <path clip-path="url(#pb8188fb261)" d="M 242.181818 315 
L 242.181818 43.2 
" style="fill:none;stroke:#ffffff;stroke-linecap:square;stroke-width:0.8;"/>
     </g>
     <g id="line2d_6">
      <g>
       <use style="fill:#555555;stroke:#555555;stroke-width:0.8;" x="242.181818" xlink:href="#m22655f036e" y="315"/>
      </g>
     </g>
     <g id="text_3">
      <!-- −1 -->
      <defs>
       <path d="M 12.40625 8.296875 
L 28.515625 8.296875 
L 28.515625 63.921875 
L 10.984375 60.40625 
L 10.984375 69.390625 
L 28.421875 72.90625 
L 38.28125 72.90625 
L 38.28125 8.296875 
L 54.390625 8.296875 
L 54.390625 0 
L 12.40625 0 
z
" id="DejaVuSans-49"/>
      </defs>
      <g style="fill:#555555;" transform="translate(230.388068 334.1575)scale(0.16 -0.16)">
       <use xlink:href="#DejaVuSans-8722"/>
       <use x="83.789062" xlink:href="#DejaVuSans-49"/>
      </g>
     </g>
    </g>
    <g id="xtick_4">
     <g id="line2d_7">
      <path clip-path="url(#pb8188fb261)" d="M 305.590909 315 
L 305.590909 43.2 
" style="fill:none;stroke:#ffffff;stroke-linecap:square;stroke-width:0.8;"/>
     </g>
     <g id="line2d_8">
      <g>
       <use style="fill:#555555;stroke:#555555;stroke-width:0.8;" x="305.590909" xlink:href="#m22655f036e" y="315"/>
      </g>
     </g>
     <g id="text_4">
      <!-- 0 -->
      <defs>
       <path d="M 31.78125 66.40625 
Q 24.171875 66.40625 20.328125 58.90625 
Q 16.5 51.421875 16.5 36.375 
Q 16.5 21.390625 20.328125 13.890625 
Q 24.171875 6.390625 31.78125 6.390625 
Q 39.453125 6.390625 43.28125 13.890625 
Q 47.125 21.390625 47.125 36.375 
Q 47.125 51.421875 43.28125 58.90625 
Q 39.453125 66.40625 31.78125 66.40625 
z
M 31.78125 74.21875 
Q 44.046875 74.21875 50.515625 64.515625 
Q 56.984375 54.828125 56.984375 36.375 
Q 56.984375 17.96875 50.515625 8.265625 
Q 44.046875 -1.421875 31.78125 -1.421875 
Q 19.53125 -1.421875 13.0625 8.265625 
Q 6.59375 17.96875 6.59375 36.375 
Q 6.59375 54.828125 13.0625 64.515625 
Q 19.53125 74.21875 31.78125 74.21875 
z
" id="DejaVuSans-48"/>
      </defs>
      <g style="fill:#555555;" transform="translate(300.500909 334.1575)scale(0.16 -0.16)">
       <use xlink:href="#DejaVuSans-48"/>
      </g>
     </g>
    </g>
    <g id="xtick_5">
     <g id="line2d_9">
      <path clip-path="url(#pb8188fb261)" d="M 369 315 
L 369 43.2 
" style="fill:none;stroke:#ffffff;stroke-linecap:square;stroke-width:0.8;"/>
     </g>
     <g id="line2d_10">
      <g>
       <use style="fill:#555555;stroke:#555555;stroke-width:0.8;" x="369" xlink:href="#m22655f036e" y="315"/>
      </g>
     </g>
     <g id="text_5">
      <!-- 1 -->
      <g style="fill:#555555;" transform="translate(363.91 334.1575)scale(0.16 -0.16)">
       <use xlink:href="#DejaVuSans-49"/>
      </g>
     </g>
    </g>
    <g id="xtick_6">
     <g id="line2d_11">
      <path clip-path="url(#pb8188fb261)" d="M 432.409091 315 
L 432.409091 43.2 
" style="fill:none;stroke:#ffffff;stroke-linecap:square;stroke-width:0.8;"/>
     </g>
     <g id="line2d_12">
      <g>
       <use style="fill:#555555;stroke:#555555;stroke-width:0.8;" x="432.409091" xlink:href="#m22655f036e" y="315"/>
      </g>
     </g>
     <g id="text_6">
      <!-- 2 -->
      <g style="fill:#555555;" transform="translate(427.319091 334.1575)scale(0.16 -0.16)">
       <use xlink:href="#DejaVuSans-50"/>
      </g>
     </g>
    </g>
    <g id="xtick_7">
     <g id="line2d_13">
      <path clip-path="url(#pb8188fb261)" d="M 495.818182 315 
L 495.818182 43.2 
" style="fill:none;stroke:#ffffff;stroke-linecap:square;stroke-width:0.8;"/>
     </g>
     <g id="line2d_14">
      <g>
       <use style="fill:#555555;stroke:#555555;stroke-width:0.8;" x="495.818182" xlink:href="#m22655f036e" y="315"/>
      </g>
     </g>
     <g id="text_7">
      <!-- 3 -->
      <g style="fill:#555555;" transform="translate(490.728182 334.1575)scale(0.16 -0.16)">
       <use xlink:href="#DejaVuSans-51"/>
      </g>
     </g>
    </g>
    <g id="xtick_8">
     <g id="line2d_15">
      <path clip-path="url(#pb8188fb261)" d="M 559.227273 315 
L 559.227273 43.2 
" style="fill:none;stroke:#ffffff;stroke-linecap:square;stroke-width:0.8;"/>
     </g>
     <g id="line2d_16">
      <g>
       <use style="fill:#555555;stroke:#555555;stroke-width:0.8;" x="559.227273" xlink:href="#m22655f036e" y="315"/>
      </g>
     </g>
     <g id="text_8">
      <!-- 4 -->
      <defs>
       <path d="M 37.796875 64.3125 
L 12.890625 25.390625 
L 37.796875 25.390625 
z
M 35.203125 72.90625 
L 47.609375 72.90625 
L 47.609375 25.390625 
L 58.015625 25.390625 
L 58.015625 17.1875 
L 47.609375 17.1875 
L 47.609375 0 
L 37.796875 0 
L 37.796875 17.1875 
L 4.890625 17.1875 
L 4.890625 26.703125 
z
" id="DejaVuSans-52"/>
      </defs>
      <g style="fill:#555555;" transform="translate(554.137273 334.1575)scale(0.16 -0.16)">
       <use xlink:href="#DejaVuSans-52"/>
      </g>
     </g>
    </g>
    <g id="xtick_9">
     <g id="line2d_17">
      <path clip-path="url(#pb8188fb261)" d="M 622.636364 315 
L 622.636364 43.2 
" style="fill:none;stroke:#ffffff;stroke-linecap:square;stroke-width:0.8;"/>
     </g>
     <g id="line2d_18">
      <g>
       <use style="fill:#555555;stroke:#555555;stroke-width:0.8;" x="622.636364" xlink:href="#m22655f036e" y="315"/>
      </g>
     </g>
     <g id="text_9">
      <!-- 5 -->
      <defs>
       <path d="M 10.796875 72.90625 
L 49.515625 72.90625 
L 49.515625 64.59375 
L 19.828125 64.59375 
L 19.828125 46.734375 
Q 21.96875 47.46875 24.109375 47.828125 
Q 26.265625 48.1875 28.421875 48.1875 
Q 40.625 48.1875 47.75 41.5 
Q 54.890625 34.8125 54.890625 23.390625 
Q 54.890625 11.625 47.5625 5.09375 
Q 40.234375 -1.421875 26.90625 -1.421875 
Q 22.3125 -1.421875 17.546875 -0.640625 
Q 12.796875 0.140625 7.71875 1.703125 
L 7.71875 11.625 
Q 12.109375 9.234375 16.796875 8.0625 
Q 21.484375 6.890625 26.703125 6.890625 
Q 35.15625 6.890625 40.078125 11.328125 
Q 45.015625 15.765625 45.015625 23.390625 
Q 45.015625 31 40.078125 35.4375 
Q 35.15625 39.890625 26.703125 39.890625 
Q 22.75 39.890625 18.8125 39.015625 
Q 14.890625 38.140625 10.796875 36.28125 
z
" id="DejaVuSans-53"/>
      </defs>
      <g style="fill:#555555;" transform="translate(617.546364 334.1575)scale(0.16 -0.16)">
       <use xlink:href="#DejaVuSans-53"/>
      </g>
     </g>
    </g>
    <g id="text_10">
     <!-- $t$ -->
     <defs>
      <path d="M 42.28125 54.6875 
L 40.921875 47.703125 
L 23 47.703125 
L 17.1875 18.015625 
Q 16.890625 16.359375 16.75 15.234375 
Q 16.609375 14.109375 16.609375 13.484375 
Q 16.609375 10.359375 18.484375 8.9375 
Q 20.359375 7.515625 24.515625 7.515625 
L 33.59375 7.515625 
L 32.078125 0 
L 23.484375 0 
Q 15.484375 0 11.546875 3.125 
Q 7.625 6.25 7.625 12.59375 
Q 7.625 13.71875 7.765625 15.0625 
Q 7.90625 16.40625 8.203125 18.015625 
L 14.015625 47.703125 
L 6.390625 47.703125 
L 7.8125 54.6875 
L 15.28125 54.6875 
L 18.3125 70.21875 
L 27.296875 70.21875 
L 24.3125 54.6875 
z
" id="DejaVuSans-Oblique-116"/>
     </defs>
     <g style="fill:#555555;" transform="translate(366.6 350.603125)scale(0.12 -0.12)">
      <use transform="translate(0 0.78125)" xlink:href="#DejaVuSans-Oblique-116"/>
     </g>
    </g>
   </g>
   <g id="matplotlib.axis_2">
    <g id="ytick_1">
     <g id="line2d_19">
      <path clip-path="url(#pb8188fb261)" d="M 90 302.645455 
L 648 302.645455 
" style="fill:none;stroke:#ffffff;stroke-linecap:square;stroke-width:0.8;"/>
     </g>
     <g id="line2d_20">
      <defs>
       <path d="M 0 0 
L -3.5 0 
" id="m5262ffb7a8" style="stroke:#555555;stroke-width:0.8;"/>
      </defs>
      <g>
       <use style="fill:#555555;stroke:#555555;stroke-width:0.8;" x="90" xlink:href="#m5262ffb7a8" y="302.645455"/>
      </g>
     </g>
     <g id="text_11">
      <!-- 0.0 -->
      <defs>
       <path d="M 10.6875 12.40625 
L 21 12.40625 
L 21 0 
L 10.6875 0 
z
" id="DejaVuSans-46"/>
      </defs>
      <g style="fill:#555555;" transform="translate(57.555 308.724205)scale(0.16 -0.16)">
       <use xlink:href="#DejaVuSans-48"/>
       <use x="63.623047" xlink:href="#DejaVuSans-46"/>
       <use x="95.410156" xlink:href="#DejaVuSans-48"/>
      </g>
     </g>
    </g>
    <g id="ytick_2">
     <g id="line2d_21">
      <path clip-path="url(#pb8188fb261)" d="M 90 253.227273 
L 648 253.227273 
" style="fill:none;stroke:#ffffff;stroke-linecap:square;stroke-width:0.8;"/>
     </g>
     <g id="line2d_22">
      <g>
       <use style="fill:#555555;stroke:#555555;stroke-width:0.8;" x="90" xlink:href="#m5262ffb7a8" y="253.227273"/>
      </g>
     </g>
     <g id="text_12">
      <!-- 0.2 -->
      <g style="fill:#555555;" transform="translate(57.555 259.306023)scale(0.16 -0.16)">
       <use xlink:href="#DejaVuSans-48"/>
       <use x="63.623047" xlink:href="#DejaVuSans-46"/>
       <use x="95.410156" xlink:href="#DejaVuSans-50"/>
      </g>
     </g>
    </g>
    <g id="ytick_3">
     <g id="line2d_23">
      <path clip-path="url(#pb8188fb261)" d="M 90 203.809091 
L 648 203.809091 
" style="fill:none;stroke:#ffffff;stroke-linecap:square;stroke-width:0.8;"/>
     </g>
     <g id="line2d_24">
      <g>
       <use style="fill:#555555;stroke:#555555;stroke-width:0.8;" x="90" xlink:href="#m5262ffb7a8" y="203.809091"/>
      </g>
     </g>
     <g id="text_13">
      <!-- 0.4 -->
      <g style="fill:#555555;" transform="translate(57.555 209.887841)scale(0.16 -0.16)">
       <use xlink:href="#DejaVuSans-48"/>
       <use x="63.623047" xlink:href="#DejaVuSans-46"/>
       <use x="95.410156" xlink:href="#DejaVuSans-52"/>
      </g>
     </g>
    </g>
    <g id="ytick_4">
     <g id="line2d_25">
      <path clip-path="url(#pb8188fb261)" d="M 90 154.390909 
L 648 154.390909 
" style="fill:none;stroke:#ffffff;stroke-linecap:square;stroke-width:0.8;"/>
     </g>
     <g id="line2d_26">
      <g>
       <use style="fill:#555555;stroke:#555555;stroke-width:0.8;" x="90" xlink:href="#m5262ffb7a8" y="154.390909"/>
      </g>
     </g>
     <g id="text_14">
      <!-- 0.6 -->
      <defs>
       <path d="M 33.015625 40.375 
Q 26.375 40.375 22.484375 35.828125 
Q 18.609375 31.296875 18.609375 23.390625 
Q 18.609375 15.53125 22.484375 10.953125 
Q 26.375 6.390625 33.015625 6.390625 
Q 39.65625 6.390625 43.53125 10.953125 
Q 47.40625 15.53125 47.40625 23.390625 
Q 47.40625 31.296875 43.53125 35.828125 
Q 39.65625 40.375 33.015625 40.375 
z
M 52.59375 71.296875 
L 52.59375 62.3125 
Q 48.875 64.0625 45.09375 64.984375 
Q 41.3125 65.921875 37.59375 65.921875 
Q 27.828125 65.921875 22.671875 59.328125 
Q 17.53125 52.734375 16.796875 39.40625 
Q 19.671875 43.65625 24.015625 45.921875 
Q 28.375 48.1875 33.59375 48.1875 
Q 44.578125 48.1875 50.953125 41.515625 
Q 57.328125 34.859375 57.328125 23.390625 
Q 57.328125 12.15625 50.6875 5.359375 
Q 44.046875 -1.421875 33.015625 -1.421875 
Q 20.359375 -1.421875 13.671875 8.265625 
Q 6.984375 17.96875 6.984375 36.375 
Q 6.984375 53.65625 15.1875 63.9375 
Q 23.390625 74.21875 37.203125 74.21875 
Q 40.921875 74.21875 44.703125 73.484375 
Q 48.484375 72.75 52.59375 71.296875 
z
" id="DejaVuSans-54"/>
      </defs>
      <g style="fill:#555555;" transform="translate(57.555 160.469659)scale(0.16 -0.16)">
       <use xlink:href="#DejaVuSans-48"/>
       <use x="63.623047" xlink:href="#DejaVuSans-46"/>
       <use x="95.410156" xlink:href="#DejaVuSans-54"/>
      </g>
     </g>
    </g>
    <g id="ytick_5">
     <g id="line2d_27">
      <path clip-path="url(#pb8188fb261)" d="M 90 104.972727 
L 648 104.972727 
" style="fill:none;stroke:#ffffff;stroke-linecap:square;stroke-width:0.8;"/>
     </g>
     <g id="line2d_28">
      <g>
       <use style="fill:#555555;stroke:#555555;stroke-width:0.8;" x="90" xlink:href="#m5262ffb7a8" y="104.972727"/>
      </g>
     </g>
     <g id="text_15">
      <!-- 0.8 -->
      <defs>
       <path d="M 31.78125 34.625 
Q 24.75 34.625 20.71875 30.859375 
Q 16.703125 27.09375 16.703125 20.515625 
Q 16.703125 13.921875 20.71875 10.15625 
Q 24.75 6.390625 31.78125 6.390625 
Q 38.8125 6.390625 42.859375 10.171875 
Q 46.921875 13.96875 46.921875 20.515625 
Q 46.921875 27.09375 42.890625 30.859375 
Q 38.875 34.625 31.78125 34.625 
z
M 21.921875 38.8125 
Q 15.578125 40.375 12.03125 44.71875 
Q 8.5 49.078125 8.5 55.328125 
Q 8.5 64.0625 14.71875 69.140625 
Q 20.953125 74.21875 31.78125 74.21875 
Q 42.671875 74.21875 48.875 69.140625 
Q 55.078125 64.0625 55.078125 55.328125 
Q 55.078125 49.078125 51.53125 44.71875 
Q 48 40.375 41.703125 38.8125 
Q 48.828125 37.15625 52.796875 32.3125 
Q 56.78125 27.484375 56.78125 20.515625 
Q 56.78125 9.90625 50.3125 4.234375 
Q 43.84375 -1.421875 31.78125 -1.421875 
Q 19.734375 -1.421875 13.25 4.234375 
Q 6.78125 9.90625 6.78125 20.515625 
Q 6.78125 27.484375 10.78125 32.3125 
Q 14.796875 37.15625 21.921875 38.8125 
z
M 18.3125 54.390625 
Q 18.3125 48.734375 21.84375 45.5625 
Q 25.390625 42.390625 31.78125 42.390625 
Q 38.140625 42.390625 41.71875 45.5625 
Q 45.3125 48.734375 45.3125 54.390625 
Q 45.3125 60.0625 41.71875 63.234375 
Q 38.140625 66.40625 31.78125 66.40625 
Q 25.390625 66.40625 21.84375 63.234375 
Q 18.3125 60.0625 18.3125 54.390625 
z
" id="DejaVuSans-56"/>
      </defs>
      <g style="fill:#555555;" transform="translate(57.555 111.051477)scale(0.16 -0.16)">
       <use xlink:href="#DejaVuSans-48"/>
       <use x="63.623047" xlink:href="#DejaVuSans-46"/>
       <use x="95.410156" xlink:href="#DejaVuSans-56"/>
      </g>
     </g>
    </g>
    <g id="ytick_6">
     <g id="line2d_29">
      <path clip-path="url(#pb8188fb261)" d="M 90 55.554545 
L 648 55.554545 
" style="fill:none;stroke:#ffffff;stroke-linecap:square;stroke-width:0.8;"/>
     </g>
     <g id="line2d_30">
      <g>
       <use style="fill:#555555;stroke:#555555;stroke-width:0.8;" x="90" xlink:href="#m5262ffb7a8" y="55.554545"/>
      </g>
     </g>
     <g id="text_16">
      <!-- 1.0 -->
      <g style="fill:#555555;" transform="translate(57.555 61.633295)scale(0.16 -0.16)">
       <use xlink:href="#DejaVuSans-49"/>
       <use x="63.623047" xlink:href="#DejaVuSans-46"/>
       <use x="95.410156" xlink:href="#DejaVuSans-48"/>
      </g>
     </g>
    </g>
    <g id="text_17">
     <!-- CDF $F_X(t)$ -->
     <defs>
      <path d="M 64.40625 67.28125 
L 64.40625 56.890625 
Q 59.421875 61.53125 53.78125 63.8125 
Q 48.140625 66.109375 41.796875 66.109375 
Q 29.296875 66.109375 22.65625 58.46875 
Q 16.015625 50.828125 16.015625 36.375 
Q 16.015625 21.96875 22.65625 14.328125 
Q 29.296875 6.6875 41.796875 6.6875 
Q 48.140625 6.6875 53.78125 8.984375 
Q 59.421875 11.28125 64.40625 15.921875 
L 64.40625 5.609375 
Q 59.234375 2.09375 53.4375 0.328125 
Q 47.65625 -1.421875 41.21875 -1.421875 
Q 24.65625 -1.421875 15.125 8.703125 
Q 5.609375 18.84375 5.609375 36.375 
Q 5.609375 53.953125 15.125 64.078125 
Q 24.65625 74.21875 41.21875 74.21875 
Q 47.75 74.21875 53.53125 72.484375 
Q 59.328125 70.75 64.40625 67.28125 
z
" id="DejaVuSans-67"/>
      <path d="M 19.671875 64.796875 
L 19.671875 8.109375 
L 31.59375 8.109375 
Q 46.6875 8.109375 53.6875 14.9375 
Q 60.6875 21.78125 60.6875 36.53125 
Q 60.6875 51.171875 53.6875 57.984375 
Q 46.6875 64.796875 31.59375 64.796875 
z
M 9.8125 72.90625 
L 30.078125 72.90625 
Q 51.265625 72.90625 61.171875 64.09375 
Q 71.09375 55.28125 71.09375 36.53125 
Q 71.09375 17.671875 61.125 8.828125 
Q 51.171875 0 30.078125 0 
L 9.8125 0 
z
" id="DejaVuSans-68"/>
      <path d="M 9.8125 72.90625 
L 51.703125 72.90625 
L 51.703125 64.59375 
L 19.671875 64.59375 
L 19.671875 43.109375 
L 48.578125 43.109375 
L 48.578125 34.8125 
L 19.671875 34.8125 
L 19.671875 0 
L 9.8125 0 
z
" id="DejaVuSans-70"/>
      <path id="DejaVuSans-32"/>
      <path d="M 16.890625 72.90625 
L 58.6875 72.90625 
L 57.078125 64.59375 
L 25.09375 64.59375 
L 20.90625 43.109375 
L 49.8125 43.109375 
L 48.1875 34.8125 
L 19.28125 34.8125 
L 12.5 0 
L 2.6875 0 
z
" id="DejaVuSans-Oblique-70"/>
      <path d="M 13.71875 72.90625 
L 23.6875 72.90625 
L 36.1875 46.578125 
L 58.796875 72.90625 
L 70.3125 72.90625 
L 40.28125 38.09375 
L 58.40625 0 
L 48.484375 0 
L 33.796875 30.71875 
L 7.171875 0 
L -4.296875 0 
L 29.78125 39.203125 
z
" id="DejaVuSans-Oblique-88"/>
      <path d="M 31 75.875 
Q 24.46875 64.65625 21.28125 53.65625 
Q 18.109375 42.671875 18.109375 31.390625 
Q 18.109375 20.125 21.3125 9.0625 
Q 24.515625 -2 31 -13.1875 
L 23.1875 -13.1875 
Q 15.875 -1.703125 12.234375 9.375 
Q 8.59375 20.453125 8.59375 31.390625 
Q 8.59375 42.28125 12.203125 53.3125 
Q 15.828125 64.359375 23.1875 75.875 
z
" id="DejaVuSans-40"/>
      <path d="M 8.015625 75.875 
L 15.828125 75.875 
Q 23.140625 64.359375 26.78125 53.3125 
Q 30.421875 42.28125 30.421875 31.390625 
Q 30.421875 20.453125 26.78125 9.375 
Q 23.140625 -1.703125 15.828125 -13.1875 
L 8.015625 -13.1875 
Q 14.5 -2 17.703125 9.0625 
Q 20.90625 20.125 20.90625 31.390625 
Q 20.90625 42.671875 17.703125 53.65625 
Q 14.5 64.65625 8.015625 75.875 
z
" id="DejaVuSans-41"/>
     </defs>
     <g style="fill:#555555;" transform="translate(51.059375 206.82)rotate(-90)scale(0.12 -0.12)">
      <use transform="translate(0 0.125)" xlink:href="#DejaVuSans-67"/>
      <use transform="translate(69.824219 0.125)" xlink:href="#DejaVuSans-68"/>
      <use transform="translate(146.826172 0.125)" xlink:href="#DejaVuSans-70"/>
      <use transform="translate(204.345703 0.125)" xlink:href="#DejaVuSans-32"/>
      <use transform="translate(236.132812 0.125)" xlink:href="#DejaVuSans-Oblique-70"/>
      <use transform="translate(293.652344 -16.28125)scale(0.7)" xlink:href="#DejaVuSans-Oblique-88"/>
      <use transform="translate(344.34082 0.125)" xlink:href="#DejaVuSans-40"/>
      <use transform="translate(383.354492 0.125)" xlink:href="#DejaVuSans-Oblique-116"/>
      <use transform="translate(422.563477 0.125)" xlink:href="#DejaVuSans-41"/>
     </g>
    </g>
   </g>
   <g id="PathCollection_1">
    <path clip-path="url(#pb8188fb261)" d="M 242.181818 307.388871 
C 243.439787 307.388871 244.646402 306.889075 245.53592 305.999557 
C 246.425438 305.110038 246.925235 303.903423 246.925235 302.645455 
C 246.925235 301.387486 246.425438 300.180871 245.53592 299.291353 
C 244.646402 298.401834 243.439787 297.902038 242.181818 297.902038 
C 240.923849 297.902038 239.717234 298.401834 238.827716 299.291353 
C 237.938198 300.180871 237.438402 301.387486 237.438402 302.645455 
C 237.438402 303.903423 237.938198 305.110038 238.827716 305.999557 
C 239.717234 306.889075 240.923849 307.388871 242.181818 307.388871 
z
" style="fill:none;stroke:#4682b4;stroke-width:2;"/>
   </g>
   <g id="PathCollection_2">
    <defs>
     <path d="M 0 4.743416 
C 1.257969 4.743416 2.464584 4.24362 3.354102 3.354102 
C 4.24362 2.464584 4.743416 1.257969 4.743416 0 
C 4.743416 -1.257969 4.24362 -2.464584 3.354102 -3.354102 
C 2.464584 -4.24362 1.257969 -4.743416 0 -4.743416 
C -1.257969 -4.743416 -2.464584 -4.24362 -3.354102 -3.354102 
C -4.24362 -2.464584 -4.743416 -1.257969 -4.743416 0 
C -4.743416 1.257969 -4.24362 2.464584 -3.354102 3.354102 
C -2.464584 4.24362 -1.257969 4.743416 0 4.743416 
z
" id="mef2aa4ff07" style="stroke:#4682b4;stroke-width:0.5;"/>
    </defs>
    <g clip-path="url(#pb8188fb261)">
     <use style="fill:#4682b4;stroke:#4682b4;stroke-width:0.5;" x="242.181818" xlink:href="#mef2aa4ff07" y="253.227273"/>
    </g>
   </g>
   <g id="PathCollection_3">
    <path clip-path="url(#pb8188fb261)" d="M 432.409091 257.970689 
C 433.66706 257.970689 434.873675 257.470893 435.763193 256.581375 
C 436.652711 255.691856 437.152507 254.485241 437.152507 253.227273 
C 437.152507 251.969304 436.652711 250.762689 435.763193 249.873171 
C 434.873675 248.983653 433.66706 248.483856 432.409091 248.483856 
C 431.151122 248.483856 429.944507 248.983653 429.054989 249.873171 
C 428.165471 250.762689 427.665674 251.969304 427.665674 253.227273 
C 427.665674 254.485241 428.165471 255.691856 429.054989 256.581375 
C 429.944507 257.470893 431.151122 257.970689 432.409091 257.970689 
z
" style="fill:none;stroke:#4682b4;stroke-width:2;"/>
   </g>
   <g id="PathCollection_4">
    <g clip-path="url(#pb8188fb261)">
     <use style="fill:#4682b4;stroke:#4682b4;stroke-width:0.5;" x="432.409091" xlink:href="#mef2aa4ff07" y="129.681818"/>
    </g>
   </g>
   <g id="PathCollection_5">
    <path clip-path="url(#pb8188fb261)" d="M 495.818182 134.425235 
C 497.076151 134.425235 498.282766 133.925438 499.172284 133.03592 
C 500.061802 132.146402 500.561598 130.939787 500.561598 129.681818 
C 500.561598 128.423849 500.061802 127.217234 499.172284 126.327716 
C 498.282766 125.438198 497.076151 124.938402 495.818182 124.938402 
C 494.560213 124.938402 493.353598 125.438198 492.46408 126.327716 
C 491.574562 127.217234 491.074765 128.423849 491.074765 129.681818 
C 491.074765 130.939787 491.574562 132.146402 492.46408 133.03592 
C 493.353598 133.925438 494.560213 134.425235 495.818182 134.425235 
z
" style="fill:none;stroke:#4682b4;stroke-width:2;"/>
   </g>
   <g id="PathCollection_6">
    <g clip-path="url(#pb8188fb261)">
     <use style="fill:#4682b4;stroke:#4682b4;stroke-width:0.5;" x="495.818182" xlink:href="#mef2aa4ff07" y="55.554545"/>
    </g>
   </g>
   <g id="line2d_31">
    <path clip-path="url(#pb8188fb261)" d="M 115.363636 302.645455 
L 116.593388 302.645455 
L 117.82314 302.645455 
L 119.052893 302.645455 
L 120.282645 302.645455 
L 121.512397 302.645455 
L 122.742149 302.645455 
L 123.971901 302.645455 
L 125.201653 302.645455 
L 126.431405 302.645455 
L 127.661157 302.645455 
L 128.890909 302.645455 
L 130.120661 302.645455 
L 131.350413 302.645455 
L 132.580165 302.645455 
L 133.809917 302.645455 
L 135.039669 302.645455 
L 136.269421 302.645455 
L 137.499174 302.645455 
L 138.728926 302.645455 
L 139.958678 302.645455 
L 141.18843 302.645455 
L 142.418182 302.645455 
L 143.647934 302.645455 
L 144.877686 302.645455 
L 146.107438 302.645455 
L 147.33719 302.645455 
L 148.566942 302.645455 
L 149.796694 302.645455 
L 151.026446 302.645455 
L 152.256198 302.645455 
L 153.48595 302.645455 
L 154.715702 302.645455 
L 155.945455 302.645455 
L 157.175207 302.645455 
L 158.404959 302.645455 
L 159.634711 302.645455 
L 160.864463 302.645455 
L 162.094215 302.645455 
L 163.323967 302.645455 
L 164.553719 302.645455 
L 165.783471 302.645455 
L 167.013223 302.645455 
L 168.242975 302.645455 
L 169.472727 302.645455 
L 170.702479 302.645455 
L 171.932231 302.645455 
L 173.161983 302.645455 
L 174.391736 302.645455 
L 175.621488 302.645455 
L 176.85124 302.645455 
L 178.080992 302.645455 
L 179.310744 302.645455 
L 180.540496 302.645455 
L 181.770248 302.645455 
L 183 302.645455 
L 184.229752 302.645455 
L 185.459504 302.645455 
L 186.689256 302.645455 
L 187.919008 302.645455 
L 189.14876 302.645455 
L 190.378512 302.645455 
L 191.608264 302.645455 
L 192.838017 302.645455 
L 194.067769 302.645455 
L 195.297521 302.645455 
L 196.527273 302.645455 
L 197.757025 302.645455 
L 198.986777 302.645455 
L 200.216529 302.645455 
L 201.446281 302.645455 
L 202.676033 302.645455 
L 203.905785 302.645455 
L 205.135537 302.645455 
L 206.365289 302.645455 
L 207.595041 302.645455 
L 208.824793 302.645455 
L 210.054545 302.645455 
L 211.284298 302.645455 
L 212.51405 302.645455 
L 213.743802 302.645455 
L 214.973554 302.645455 
L 216.203306 302.645455 
L 217.433058 302.645455 
L 218.66281 302.645455 
L 219.892562 302.645455 
L 221.122314 302.645455 
L 222.352066 302.645455 
L 223.581818 302.645455 
L 224.81157 302.645455 
L 226.041322 302.645455 
L 227.271074 302.645455 
L 228.500826 302.645455 
L 229.730579 302.645455 
L 230.960331 302.645455 
L 232.190083 302.645455 
L 233.419835 302.645455 
L 234.649587 302.645455 
L 235.879339 302.645455 
L 237.109091 302.645455 
" style="fill:none;stroke:#4682b4;stroke-linecap:square;stroke-width:4;"/>
   </g>
   <g id="line2d_32">
    <path clip-path="url(#pb8188fb261)" d="M 242.181818 253.227273 
L 244.052066 253.227273 
L 245.922314 253.227273 
L 247.792562 253.227273 
L 249.66281 253.227273 
L 251.533058 253.227273 
L 253.403306 253.227273 
L 255.273554 253.227273 
L 257.143802 253.227273 
L 259.01405 253.227273 
L 260.884298 253.227273 
L 262.754545 253.227273 
L 264.624793 253.227273 
L 266.495041 253.227273 
L 268.365289 253.227273 
L 270.235537 253.227273 
L 272.105785 253.227273 
L 273.976033 253.227273 
L 275.846281 253.227273 
L 277.716529 253.227273 
L 279.586777 253.227273 
L 281.457025 253.227273 
L 283.327273 253.227273 
L 285.197521 253.227273 
L 287.067769 253.227273 
L 288.938017 253.227273 
L 290.808264 253.227273 
L 292.678512 253.227273 
L 294.54876 253.227273 
L 296.419008 253.227273 
L 298.289256 253.227273 
L 300.159504 253.227273 
L 302.029752 253.227273 
L 303.9 253.227273 
L 305.770248 253.227273 
L 307.640496 253.227273 
L 309.510744 253.227273 
L 311.380992 253.227273 
L 313.25124 253.227273 
L 315.121488 253.227273 
L 316.991736 253.227273 
L 318.861983 253.227273 
L 320.732231 253.227273 
L 322.602479 253.227273 
L 324.472727 253.227273 
L 326.342975 253.227273 
L 328.213223 253.227273 
L 330.083471 253.227273 
L 331.953719 253.227273 
L 333.823967 253.227273 
L 335.694215 253.227273 
L 337.564463 253.227273 
L 339.434711 253.227273 
L 341.304959 253.227273 
L 343.175207 253.227273 
L 345.045455 253.227273 
L 346.915702 253.227273 
L 348.78595 253.227273 
L 350.656198 253.227273 
L 352.526446 253.227273 
L 354.396694 253.227273 
L 356.266942 253.227273 
L 358.13719 253.227273 
L 360.007438 253.227273 
L 361.877686 253.227273 
L 363.747934 253.227273 
L 365.618182 253.227273 
L 367.48843 253.227273 
L 369.358678 253.227273 
L 371.228926 253.227273 
L 373.099174 253.227273 
L 374.969421 253.227273 
L 376.839669 253.227273 
L 378.709917 253.227273 
L 380.580165 253.227273 
L 382.450413 253.227273 
L 384.320661 253.227273 
L 386.190909 253.227273 
L 388.061157 253.227273 
L 389.931405 253.227273 
L 391.801653 253.227273 
L 393.671901 253.227273 
L 395.542149 253.227273 
L 397.412397 253.227273 
L 399.282645 253.227273 
L 401.152893 253.227273 
L 403.02314 253.227273 
L 404.893388 253.227273 
L 406.763636 253.227273 
L 408.633884 253.227273 
L 410.504132 253.227273 
L 412.37438 253.227273 
L 414.244628 253.227273 
L 416.114876 253.227273 
L 417.985124 253.227273 
L 419.855372 253.227273 
L 421.72562 253.227273 
L 423.595868 253.227273 
L 425.466116 253.227273 
L 427.336364 253.227273 
" style="fill:none;stroke:#4682b4;stroke-linecap:square;stroke-width:4;"/>
   </g>
   <g id="line2d_33">
    <path clip-path="url(#pb8188fb261)" d="M 432.409091 129.681818 
L 432.998347 129.681818 
L 433.587603 129.681818 
L 434.17686 129.681818 
L 434.766116 129.681818 
L 435.355372 129.681818 
L 435.944628 129.681818 
L 436.533884 129.681818 
L 437.12314 129.681818 
L 437.712397 129.681818 
L 438.301653 129.681818 
L 438.890909 129.681818 
L 439.480165 129.681818 
L 440.069421 129.681818 
L 440.658678 129.681818 
L 441.247934 129.681818 
L 441.83719 129.681818 
L 442.426446 129.681818 
L 443.015702 129.681818 
L 443.604959 129.681818 
L 444.194215 129.681818 
L 444.783471 129.681818 
L 445.372727 129.681818 
L 445.961983 129.681818 
L 446.55124 129.681818 
L 447.140496 129.681818 
L 447.729752 129.681818 
L 448.319008 129.681818 
L 448.908264 129.681818 
L 449.497521 129.681818 
L 450.086777 129.681818 
L 450.676033 129.681818 
L 451.265289 129.681818 
L 451.854545 129.681818 
L 452.443802 129.681818 
L 453.033058 129.681818 
L 453.622314 129.681818 
L 454.21157 129.681818 
L 454.800826 129.681818 
L 455.390083 129.681818 
L 455.979339 129.681818 
L 456.568595 129.681818 
L 457.157851 129.681818 
L 457.747107 129.681818 
L 458.336364 129.681818 
L 458.92562 129.681818 
L 459.514876 129.681818 
L 460.104132 129.681818 
L 460.693388 129.681818 
L 461.282645 129.681818 
L 461.871901 129.681818 
L 462.461157 129.681818 
L 463.050413 129.681818 
L 463.639669 129.681818 
L 464.228926 129.681818 
L 464.818182 129.681818 
L 465.407438 129.681818 
L 465.996694 129.681818 
L 466.58595 129.681818 
L 467.175207 129.681818 
L 467.764463 129.681818 
L 468.353719 129.681818 
L 468.942975 129.681818 
L 469.532231 129.681818 
L 470.121488 129.681818 
L 470.710744 129.681818 
L 471.3 129.681818 
L 471.889256 129.681818 
L 472.478512 129.681818 
L 473.067769 129.681818 
L 473.657025 129.681818 
L 474.246281 129.681818 
L 474.835537 129.681818 
L 475.424793 129.681818 
L 476.01405 129.681818 
L 476.603306 129.681818 
L 477.192562 129.681818 
L 477.781818 129.681818 
L 478.371074 129.681818 
L 478.960331 129.681818 
L 479.549587 129.681818 
L 480.138843 129.681818 
L 480.728099 129.681818 
L 481.317355 129.681818 
L 481.906612 129.681818 
L 482.495868 129.681818 
L 483.085124 129.681818 
L 483.67438 129.681818 
L 484.263636 129.681818 
L 484.852893 129.681818 
L 485.442149 129.681818 
L 486.031405 129.681818 
L 486.620661 129.681818 
L 487.209917 129.681818 
L 487.799174 129.681818 
L 488.38843 129.681818 
L 488.977686 129.681818 
L 489.566942 129.681818 
L 490.156198 129.681818 
L 490.745455 129.681818 
" style="fill:none;stroke:#4682b4;stroke-linecap:square;stroke-width:4;"/>
   </g>
   <g id="line2d_34">
    <path clip-path="url(#pb8188fb261)" d="M 495.818182 55.554545 
L 497.099174 55.554545 
L 498.380165 55.554545 
L 499.661157 55.554545 
L 500.942149 55.554545 
L 502.22314 55.554545 
L 503.504132 55.554545 
L 504.785124 55.554545 
L 506.066116 55.554545 
L 507.347107 55.554545 
L 508.628099 55.554545 
L 509.909091 55.554545 
L 511.190083 55.554545 
L 512.471074 55.554545 
L 513.752066 55.554545 
L 515.033058 55.554545 
L 516.31405 55.554545 
L 517.595041 55.554545 
L 518.876033 55.554545 
L 520.157025 55.554545 
L 521.438017 55.554545 
L 522.719008 55.554545 
L 524 55.554545 
L 525.280992 55.554545 
L 526.561983 55.554545 
L 527.842975 55.554545 
L 529.123967 55.554545 
L 530.404959 55.554545 
L 531.68595 55.554545 
L 532.966942 55.554545 
L 534.247934 55.554545 
L 535.528926 55.554545 
L 536.809917 55.554545 
L 538.090909 55.554545 
L 539.371901 55.554545 
L 540.652893 55.554545 
L 541.933884 55.554545 
L 543.214876 55.554545 
L 544.495868 55.554545 
L 545.77686 55.554545 
L 547.057851 55.554545 
L 548.338843 55.554545 
L 549.619835 55.554545 
L 550.900826 55.554545 
L 552.181818 55.554545 
L 553.46281 55.554545 
L 554.743802 55.554545 
L 556.024793 55.554545 
L 557.305785 55.554545 
L 558.586777 55.554545 
L 559.867769 55.554545 
L 561.14876 55.554545 
L 562.429752 55.554545 
L 563.710744 55.554545 
L 564.991736 55.554545 
L 566.272727 55.554545 
L 567.553719 55.554545 
L 568.834711 55.554545 
L 570.115702 55.554545 
L 571.396694 55.554545 
L 572.677686 55.554545 
L 573.958678 55.554545 
L 575.239669 55.554545 
L 576.520661 55.554545 
L 577.801653 55.554545 
L 579.082645 55.554545 
L 580.363636 55.554545 
L 581.644628 55.554545 
L 582.92562 55.554545 
L 584.206612 55.554545 
L 585.487603 55.554545 
L 586.768595 55.554545 
L 588.049587 55.554545 
L 589.330579 55.554545 
L 590.61157 55.554545 
L 591.892562 55.554545 
L 593.173554 55.554545 
L 594.454545 55.554545 
L 595.735537 55.554545 
L 597.016529 55.554545 
L 598.297521 55.554545 
L 599.578512 55.554545 
L 600.859504 55.554545 
L 602.140496 55.554545 
L 603.421488 55.554545 
L 604.702479 55.554545 
L 605.983471 55.554545 
L 607.264463 55.554545 
L 608.545455 55.554545 
L 609.826446 55.554545 
L 611.107438 55.554545 
L 612.38843 55.554545 
L 613.669421 55.554545 
L 614.950413 55.554545 
L 616.231405 55.554545 
L 617.512397 55.554545 
L 618.793388 55.554545 
L 620.07438 55.554545 
L 621.355372 55.554545 
L 622.636364 55.554545 
" style="fill:none;stroke:#4682b4;stroke-linecap:square;stroke-width:4;"/>
   </g>
   <g id="patch_3">
    <path d="M 90 315 
L 90 43.2 
" style="fill:none;stroke:#ffffff;stroke-linecap:square;stroke-linejoin:miter;"/>
   </g>
   <g id="patch_4">
    <path d="M 648 315 
L 648 43.2 
" style="fill:none;stroke:#ffffff;stroke-linecap:square;stroke-linejoin:miter;"/>
   </g>
   <g id="patch_5">
    <path d="M 90 315 
L 648 315 
" style="fill:none;stroke:#ffffff;stroke-linecap:square;stroke-linejoin:miter;"/>
   </g>
   <g id="patch_6">
    <path d="M 90 43.2 
L 648 43.2 
" style="fill:none;stroke:#ffffff;stroke-linecap:square;stroke-linejoin:miter;"/>
   </g>
  </g>
 </g>
 <defs>
  <clipPath id="pb8188fb261">
   <rect height="271.8" width="558" x="90" y="43.2"/>
  </clipPath>
 </defs>
</svg>
