<?xml version="1.0" encoding="utf-8" standalone="no"?>
<!DOCTYPE svg PUBLIC "-//W3C//DTD SVG 1.1//EN"
  "http://www.w3.org/Graphics/SVG/1.1/DTD/svg11.dtd">
<!-- Created with matplotlib (https://matplotlib.org/) -->
<svg height="360pt" version="1.1" viewBox="0 0 720 360" width="720pt" xmlns="http://www.w3.org/2000/svg" xmlns:xlink="http://www.w3.org/1999/xlink">
 <defs>
  <style type="text/css">
*{stroke-linecap:butt;stroke-linejoin:round;}
  </style>
 </defs>
 <g id="figure_1">
  <g id="patch_1">
   <path d="M 0 360 
L 720 360 
L 720 0 
L 0 0 
z
" style="fill:#ffffff;"/>
  </g>
  <g id="axes_1">
   <g id="patch_2">
    <path d="M 90 315 
L 648 315 
L 648 43.2 
L 90 43.2 
z
" style="fill:#e5e5e5;"/>
   </g>
   <g id="matplotlib.axis_1">
    <g id="xtick_1">
     <g id="line2d_1">
      <path clip-path="url(#p16d4733b6e)" d="M 138.421488 315 
L 138.421488 43.2 
" style="fill:none;stroke:#ffffff;stroke-linecap:square;stroke-width:0.8;"/>
     </g>
     <g id="line2d_2">
      <defs>
       <path d="M 0 0 
L 0 3.5 
" id="m601433b0b6" style="stroke:#555555;stroke-width:0.8;"/>
      </defs>
      <g>
       <use style="fill:#555555;stroke:#555555;stroke-width:0.8;" x="138.421488" xlink:href="#m601433b0b6" y="315"/>
      </g>
     </g>
     <g id="text_1">
      <!-- −1.0 -->
      <defs>
       <path d="M 10.59375 35.5 
L 73.1875 35.5 
L 73.1875 27.203125 
L 10.59375 27.203125 
z
" id="DejaVuSans-8722"/>
       <path d="M 12.40625 8.296875 
L 28.515625 8.296875 
L 28.515625 63.921875 
L 10.984375 60.40625 
L 10.984375 69.390625 
L 28.421875 72.90625 
L 38.28125 72.90625 
L 38.28125 8.296875 
L 54.390625 8.296875 
L 54.390625 0 
L 12.40625 0 
z
" id="DejaVuSans-49"/>
       <path d="M 10.6875 12.40625 
L 21 12.40625 
L 21 0 
L 10.6875 0 
z
" id="DejaVuSans-46"/>
       <path d="M 31.78125 66.40625 
Q 24.171875 66.40625 20.328125 58.90625 
Q 16.5 51.421875 16.5 36.375 
Q 16.5 21.390625 20.328125 13.890625 
Q 24.171875 6.390625 31.78125 6.390625 
Q 39.453125 6.390625 43.28125 13.890625 
Q 47.125 21.390625 47.125 36.375 
Q 47.125 51.421875 43.28125 58.90625 
Q 39.453125 66.40625 31.78125 66.40625 
z
M 31.78125 74.21875 
Q 44.046875 74.21875 50.515625 64.515625 
Q 56.984375 54.828125 56.984375 36.375 
Q 56.984375 17.96875 50.515625 8.265625 
Q 44.046875 -1.421875 31.78125 -1.421875 
Q 19.53125 -1.421875 13.0625 8.265625 
Q 6.59375 17.96875 6.59375 36.375 
Q 6.59375 54.828125 13.0625 64.515625 
Q 19.53125 74.21875 31.78125 74.21875 
z
" id="DejaVuSans-48"/>
      </defs>
      <g style="fill:#555555;" transform="translate(118.995238 334.1575)scale(0.16 -0.16)">
       <use xlink:href="#DejaVuSans-8722"/>
       <use x="83.789062" xlink:href="#DejaVuSans-49"/>
       <use x="147.412109" xlink:href="#DejaVuSans-46"/>
       <use x="179.199219" xlink:href="#DejaVuSans-48"/>
      </g>
     </g>
    </g>
    <g id="xtick_2">
     <g id="line2d_3">
      <path clip-path="url(#p16d4733b6e)" d="M 253.710744 315 
L 253.710744 43.2 
" style="fill:none;stroke:#ffffff;stroke-linecap:square;stroke-width:0.8;"/>
     </g>
     <g id="line2d_4">
      <g>
       <use style="fill:#555555;stroke:#555555;stroke-width:0.8;" x="253.710744" xlink:href="#m601433b0b6" y="315"/>
      </g>
     </g>
     <g id="text_2">
      <!-- −0.5 -->
      <defs>
       <path d="M 10.796875 72.90625 
L 49.515625 72.90625 
L 49.515625 64.59375 
L 19.828125 64.59375 
L 19.828125 46.734375 
Q 21.96875 47.46875 24.109375 47.828125 
Q 26.265625 48.1875 28.421875 48.1875 
Q 40.625 48.1875 47.75 41.5 
Q 54.890625 34.8125 54.890625 23.390625 
Q 54.890625 11.625 47.5625 5.09375 
Q 40.234375 -1.421875 26.90625 -1.421875 
Q 22.3125 -1.421875 17.546875 -0.640625 
Q 12.796875 0.140625 7.71875 1.703125 
L 7.71875 11.625 
Q 12.109375 9.234375 16.796875 8.0625 
Q 21.484375 6.890625 26.703125 6.890625 
Q 35.15625 6.890625 40.078125 11.328125 
Q 45.015625 15.765625 45.015625 23.390625 
Q 45.015625 31 40.078125 35.4375 
Q 35.15625 39.890625 26.703125 39.890625 
Q 22.75 39.890625 18.8125 39.015625 
Q 14.890625 38.140625 10.796875 36.28125 
z
" id="DejaVuSans-53"/>
      </defs>
      <g style="fill:#555555;" transform="translate(234.284494 334.1575)scale(0.16 -0.16)">
       <use xlink:href="#DejaVuSans-8722"/>
       <use x="83.789062" xlink:href="#DejaVuSans-48"/>
       <use x="147.412109" xlink:href="#DejaVuSans-46"/>
       <use x="179.199219" xlink:href="#DejaVuSans-53"/>
      </g>
     </g>
    </g>
    <g id="xtick_3">
     <g id="line2d_5">
      <path clip-path="url(#p16d4733b6e)" d="M 369 315 
L 369 43.2 
" style="fill:none;stroke:#ffffff;stroke-linecap:square;stroke-width:0.8;"/>
     </g>
     <g id="line2d_6">
      <g>
       <use style="fill:#555555;stroke:#555555;stroke-width:0.8;" x="369" xlink:href="#m601433b0b6" y="315"/>
      </g>
     </g>
     <g id="text_3">
      <!-- 0.0 -->
      <g style="fill:#555555;" transform="translate(356.2775 334.1575)scale(0.16 -0.16)">
       <use xlink:href="#DejaVuSans-48"/>
       <use x="63.623047" xlink:href="#DejaVuSans-46"/>
       <use x="95.410156" xlink:href="#DejaVuSans-48"/>
      </g>
     </g>
    </g>
    <g id="xtick_4">
     <g id="line2d_7">
      <path clip-path="url(#p16d4733b6e)" d="M 484.289256 315 
L 484.289256 43.2 
" style="fill:none;stroke:#ffffff;stroke-linecap:square;stroke-width:0.8;"/>
     </g>
     <g id="line2d_8">
      <g>
       <use style="fill:#555555;stroke:#555555;stroke-width:0.8;" x="484.289256" xlink:href="#m601433b0b6" y="315"/>
      </g>
     </g>
     <g id="text_4">
      <!-- 0.5 -->
      <g style="fill:#555555;" transform="translate(471.566756 334.1575)scale(0.16 -0.16)">
       <use xlink:href="#DejaVuSans-48"/>
       <use x="63.623047" xlink:href="#DejaVuSans-46"/>
       <use x="95.410156" xlink:href="#DejaVuSans-53"/>
      </g>
     </g>
    </g>
    <g id="xtick_5">
     <g id="line2d_9">
      <path clip-path="url(#p16d4733b6e)" d="M 599.578512 315 
L 599.578512 43.2 
" style="fill:none;stroke:#ffffff;stroke-linecap:square;stroke-width:0.8;"/>
     </g>
     <g id="line2d_10">
      <g>
       <use style="fill:#555555;stroke:#555555;stroke-width:0.8;" x="599.578512" xlink:href="#m601433b0b6" y="315"/>
      </g>
     </g>
     <g id="text_5">
      <!-- 1.0 -->
      <g style="fill:#555555;" transform="translate(586.856012 334.1575)scale(0.16 -0.16)">
       <use xlink:href="#DejaVuSans-49"/>
       <use x="63.623047" xlink:href="#DejaVuSans-46"/>
       <use x="95.410156" xlink:href="#DejaVuSans-48"/>
      </g>
     </g>
    </g>
   </g>
   <g id="matplotlib.axis_2">
    <g id="ytick_1">
     <g id="line2d_11">
      <path clip-path="url(#p16d4733b6e)" d="M 90 294.092308 
L 648 294.092308 
" style="fill:none;stroke:#ffffff;stroke-linecap:square;stroke-width:0.8;"/>
     </g>
     <g id="line2d_12">
      <defs>
       <path d="M 0 0 
L -3.5 0 
" id="m9bada39b21" style="stroke:#555555;stroke-width:0.8;"/>
      </defs>
      <g>
       <use style="fill:#555555;stroke:#555555;stroke-width:0.8;" x="90" xlink:href="#m9bada39b21" y="294.092308"/>
      </g>
     </g>
     <g id="text_6">
      <!-- 0.0 -->
      <g style="fill:#555555;" transform="translate(57.555 300.171058)scale(0.16 -0.16)">
       <use xlink:href="#DejaVuSans-48"/>
       <use x="63.623047" xlink:href="#DejaVuSans-46"/>
       <use x="95.410156" xlink:href="#DejaVuSans-48"/>
      </g>
     </g>
    </g>
    <g id="ytick_2">
     <g id="line2d_13">
      <path clip-path="url(#p16d4733b6e)" d="M 90 252.276923 
L 648 252.276923 
" style="fill:none;stroke:#ffffff;stroke-linecap:square;stroke-width:0.8;"/>
     </g>
     <g id="line2d_14">
      <g>
       <use style="fill:#555555;stroke:#555555;stroke-width:0.8;" x="90" xlink:href="#m9bada39b21" y="252.276923"/>
      </g>
     </g>
     <g id="text_7">
      <!-- 0.2 -->
      <defs>
       <path d="M 19.1875 8.296875 
L 53.609375 8.296875 
L 53.609375 0 
L 7.328125 0 
L 7.328125 8.296875 
Q 12.9375 14.109375 22.625 23.890625 
Q 32.328125 33.6875 34.8125 36.53125 
Q 39.546875 41.84375 41.421875 45.53125 
Q 43.3125 49.21875 43.3125 52.78125 
Q 43.3125 58.59375 39.234375 62.25 
Q 35.15625 65.921875 28.609375 65.921875 
Q 23.96875 65.921875 18.8125 64.3125 
Q 13.671875 62.703125 7.8125 59.421875 
L 7.8125 69.390625 
Q 13.765625 71.78125 18.9375 73 
Q 24.125 74.21875 28.421875 74.21875 
Q 39.75 74.21875 46.484375 68.546875 
Q 53.21875 62.890625 53.21875 53.421875 
Q 53.21875 48.921875 51.53125 44.890625 
Q 49.859375 40.875 45.40625 35.40625 
Q 44.1875 33.984375 37.640625 27.21875 
Q 31.109375 20.453125 19.1875 8.296875 
z
" id="DejaVuSans-50"/>
      </defs>
      <g style="fill:#555555;" transform="translate(57.555 258.355673)scale(0.16 -0.16)">
       <use xlink:href="#DejaVuSans-48"/>
       <use x="63.623047" xlink:href="#DejaVuSans-46"/>
       <use x="95.410156" xlink:href="#DejaVuSans-50"/>
      </g>
     </g>
    </g>
    <g id="ytick_3">
     <g id="line2d_15">
      <path clip-path="url(#p16d4733b6e)" d="M 90 210.461538 
L 648 210.461538 
" style="fill:none;stroke:#ffffff;stroke-linecap:square;stroke-width:0.8;"/>
     </g>
     <g id="line2d_16">
      <g>
       <use style="fill:#555555;stroke:#555555;stroke-width:0.8;" x="90" xlink:href="#m9bada39b21" y="210.461538"/>
      </g>
     </g>
     <g id="text_8">
      <!-- 0.4 -->
      <defs>
       <path d="M 37.796875 64.3125 
L 12.890625 25.390625 
L 37.796875 25.390625 
z
M 35.203125 72.90625 
L 47.609375 72.90625 
L 47.609375 25.390625 
L 58.015625 25.390625 
L 58.015625 17.1875 
L 47.609375 17.1875 
L 47.609375 0 
L 37.796875 0 
L 37.796875 17.1875 
L 4.890625 17.1875 
L 4.890625 26.703125 
z
" id="DejaVuSans-52"/>
      </defs>
      <g style="fill:#555555;" transform="translate(57.555 216.540288)scale(0.16 -0.16)">
       <use xlink:href="#DejaVuSans-48"/>
       <use x="63.623047" xlink:href="#DejaVuSans-46"/>
       <use x="95.410156" xlink:href="#DejaVuSans-52"/>
      </g>
     </g>
    </g>
    <g id="ytick_4">
     <g id="line2d_17">
      <path clip-path="url(#p16d4733b6e)" d="M 90 168.646154 
L 648 168.646154 
" style="fill:none;stroke:#ffffff;stroke-linecap:square;stroke-width:0.8;"/>
     </g>
     <g id="line2d_18">
      <g>
       <use style="fill:#555555;stroke:#555555;stroke-width:0.8;" x="90" xlink:href="#m9bada39b21" y="168.646154"/>
      </g>
     </g>
     <g id="text_9">
      <!-- 0.6 -->
      <defs>
       <path d="M 33.015625 40.375 
Q 26.375 40.375 22.484375 35.828125 
Q 18.609375 31.296875 18.609375 23.390625 
Q 18.609375 15.53125 22.484375 10.953125 
Q 26.375 6.390625 33.015625 6.390625 
Q 39.65625 6.390625 43.53125 10.953125 
Q 47.40625 15.53125 47.40625 23.390625 
Q 47.40625 31.296875 43.53125 35.828125 
Q 39.65625 40.375 33.015625 40.375 
z
M 52.59375 71.296875 
L 52.59375 62.3125 
Q 48.875 64.0625 45.09375 64.984375 
Q 41.3125 65.921875 37.59375 65.921875 
Q 27.828125 65.921875 22.671875 59.328125 
Q 17.53125 52.734375 16.796875 39.40625 
Q 19.671875 43.65625 24.015625 45.921875 
Q 28.375 48.1875 33.59375 48.1875 
Q 44.578125 48.1875 50.953125 41.515625 
Q 57.328125 34.859375 57.328125 23.390625 
Q 57.328125 12.15625 50.6875 5.359375 
Q 44.046875 -1.421875 33.015625 -1.421875 
Q 20.359375 -1.421875 13.671875 8.265625 
Q 6.984375 17.96875 6.984375 36.375 
Q 6.984375 53.65625 15.1875 63.9375 
Q 23.390625 74.21875 37.203125 74.21875 
Q 40.921875 74.21875 44.703125 73.484375 
Q 48.484375 72.75 52.59375 71.296875 
z
" id="DejaVuSans-54"/>
      </defs>
      <g style="fill:#555555;" transform="translate(57.555 174.724904)scale(0.16 -0.16)">
       <use xlink:href="#DejaVuSans-48"/>
       <use x="63.623047" xlink:href="#DejaVuSans-46"/>
       <use x="95.410156" xlink:href="#DejaVuSans-54"/>
      </g>
     </g>
    </g>
    <g id="ytick_5">
     <g id="line2d_19">
      <path clip-path="url(#p16d4733b6e)" d="M 90 126.830769 
L 648 126.830769 
" style="fill:none;stroke:#ffffff;stroke-linecap:square;stroke-width:0.8;"/>
     </g>
     <g id="line2d_20">
      <g>
       <use style="fill:#555555;stroke:#555555;stroke-width:0.8;" x="90" xlink:href="#m9bada39b21" y="126.830769"/>
      </g>
     </g>
     <g id="text_10">
      <!-- 0.8 -->
      <defs>
       <path d="M 31.78125 34.625 
Q 24.75 34.625 20.71875 30.859375 
Q 16.703125 27.09375 16.703125 20.515625 
Q 16.703125 13.921875 20.71875 10.15625 
Q 24.75 6.390625 31.78125 6.390625 
Q 38.8125 6.390625 42.859375 10.171875 
Q 46.921875 13.96875 46.921875 20.515625 
Q 46.921875 27.09375 42.890625 30.859375 
Q 38.875 34.625 31.78125 34.625 
z
M 21.921875 38.8125 
Q 15.578125 40.375 12.03125 44.71875 
Q 8.5 49.078125 8.5 55.328125 
Q 8.5 64.0625 14.71875 69.140625 
Q 20.953125 74.21875 31.78125 74.21875 
Q 42.671875 74.21875 48.875 69.140625 
Q 55.078125 64.0625 55.078125 55.328125 
Q 55.078125 49.078125 51.53125 44.71875 
Q 48 40.375 41.703125 38.8125 
Q 48.828125 37.15625 52.796875 32.3125 
Q 56.78125 27.484375 56.78125 20.515625 
Q 56.78125 9.90625 50.3125 4.234375 
Q 43.84375 -1.421875 31.78125 -1.421875 
Q 19.734375 -1.421875 13.25 4.234375 
Q 6.78125 9.90625 6.78125 20.515625 
Q 6.78125 27.484375 10.78125 32.3125 
Q 14.796875 37.15625 21.921875 38.8125 
z
M 18.3125 54.390625 
Q 18.3125 48.734375 21.84375 45.5625 
Q 25.390625 42.390625 31.78125 42.390625 
Q 38.140625 42.390625 41.71875 45.5625 
Q 45.3125 48.734375 45.3125 54.390625 
Q 45.3125 60.0625 41.71875 63.234375 
Q 38.140625 66.40625 31.78125 66.40625 
Q 25.390625 66.40625 21.84375 63.234375 
Q 18.3125 60.0625 18.3125 54.390625 
z
" id="DejaVuSans-56"/>
      </defs>
      <g style="fill:#555555;" transform="translate(57.555 132.909519)scale(0.16 -0.16)">
       <use xlink:href="#DejaVuSans-48"/>
       <use x="63.623047" xlink:href="#DejaVuSans-46"/>
       <use x="95.410156" xlink:href="#DejaVuSans-56"/>
      </g>
     </g>
    </g>
    <g id="ytick_6">
     <g id="line2d_21">
      <path clip-path="url(#p16d4733b6e)" d="M 90 85.015385 
L 648 85.015385 
" style="fill:none;stroke:#ffffff;stroke-linecap:square;stroke-width:0.8;"/>
     </g>
     <g id="line2d_22">
      <g>
       <use style="fill:#555555;stroke:#555555;stroke-width:0.8;" x="90" xlink:href="#m9bada39b21" y="85.015385"/>
      </g>
     </g>
     <g id="text_11">
      <!-- 1.0 -->
      <g style="fill:#555555;" transform="translate(57.555 91.094135)scale(0.16 -0.16)">
       <use xlink:href="#DejaVuSans-49"/>
       <use x="63.623047" xlink:href="#DejaVuSans-46"/>
       <use x="95.410156" xlink:href="#DejaVuSans-48"/>
      </g>
     </g>
    </g>
    <g id="ytick_7">
     <g id="line2d_23">
      <path clip-path="url(#p16d4733b6e)" d="M 90 43.2 
L 648 43.2 
" style="fill:none;stroke:#ffffff;stroke-linecap:square;stroke-width:0.8;"/>
     </g>
     <g id="line2d_24">
      <g>
       <use style="fill:#555555;stroke:#555555;stroke-width:0.8;" x="90" xlink:href="#m9bada39b21" y="43.2"/>
      </g>
     </g>
     <g id="text_12">
      <!-- 1.2 -->
      <g style="fill:#555555;" transform="translate(57.555 49.27875)scale(0.16 -0.16)">
       <use xlink:href="#DejaVuSans-49"/>
       <use x="63.623047" xlink:href="#DejaVuSans-46"/>
       <use x="95.410156" xlink:href="#DejaVuSans-50"/>
      </g>
     </g>
    </g>
   </g>
   <g id="line2d_25">
    <path clip-path="url(#p16d4733b6e)" d="M 115.363636 85.015385 
L 120.487603 85.015385 
L 125.61157 85.015385 
L 130.735537 85.015385 
L 135.859504 85.015385 
L 140.983471 85.015385 
L 146.107438 85.015385 
L 151.231405 85.015385 
L 156.355372 85.015385 
L 161.479339 85.015385 
L 166.603306 85.015385 
L 171.727273 85.015385 
L 176.85124 85.015385 
L 181.975207 85.015385 
L 187.099174 85.015385 
L 192.22314 85.015385 
L 197.347107 85.015385 
L 202.471074 85.015385 
L 207.595041 85.015385 
L 212.719008 85.015385 
L 217.842975 85.015385 
L 222.966942 85.015385 
L 228.090909 85.015385 
L 233.214876 85.015385 
L 238.338843 85.015385 
L 243.46281 85.015385 
L 248.586777 85.015385 
L 253.710744 85.015385 
L 258.834711 85.015385 
L 263.958678 85.015385 
L 269.082645 85.015385 
L 274.206612 85.015385 
L 279.330579 85.015385 
L 284.454545 85.015385 
L 289.578512 85.015385 
L 294.702479 85.015385 
L 299.826446 85.015385 
L 304.950413 85.015385 
L 310.07438 85.015385 
L 315.198347 85.015385 
L 320.322314 85.015385 
L 325.446281 85.015385 
L 330.570248 85.015385 
L 335.694215 85.015385 
L 340.818182 85.015385 
L 345.942149 85.015385 
L 351.066116 85.015385 
L 356.190083 85.015385 
L 361.31405 85.015385 
L 366.438017 85.015385 
L 371.561983 85.015385 
L 376.68595 85.015385 
L 381.809917 85.015385 
L 386.933884 85.015385 
L 392.057851 85.015385 
L 397.181818 85.015385 
L 402.305785 85.015385 
L 407.429752 85.015385 
L 412.553719 85.015385 
L 417.677686 85.015385 
L 422.801653 85.015385 
L 427.92562 85.015385 
L 433.049587 85.015385 
L 438.173554 85.015385 
L 443.297521 85.015385 
L 448.421488 85.015385 
L 453.545455 85.015385 
L 458.669421 85.015385 
L 463.793388 85.015385 
L 468.917355 85.015385 
L 474.041322 85.015385 
L 479.165289 85.015385 
L 484.289256 85.015385 
L 489.413223 85.015385 
L 494.53719 85.015385 
L 499.661157 85.015385 
L 504.785124 85.015385 
L 509.909091 85.015385 
L 515.033058 85.015385 
L 520.157025 85.015385 
L 525.280992 85.015385 
L 530.404959 85.015385 
L 535.528926 85.015385 
L 540.652893 85.015385 
L 545.77686 85.015385 
L 550.900826 85.015385 
L 556.024793 85.015385 
L 561.14876 85.015385 
L 566.272727 85.015385 
L 571.396694 85.015385 
L 576.520661 85.015385 
L 581.644628 85.015385 
L 586.768595 85.015385 
L 591.892562 85.015385 
L 597.016529 85.015385 
L 602.140496 85.015385 
L 607.264463 85.015385 
L 612.38843 85.015385 
L 617.512397 85.015385 
L 622.636364 85.015385 
" style="fill:none;stroke:#4682b4;stroke-linecap:square;stroke-width:2;"/>
   </g>
   <g id="line2d_26">
    <path clip-path="url(#p16d4733b6e)" d="M 115.363636 41.109231 
L 120.487603 51.227521 
L 125.61157 61.139316 
L 130.735537 70.844615 
L 135.859504 80.343419 
L 140.983471 89.635726 
L 146.107438 98.721538 
L 151.231405 107.600855 
L 156.355372 116.273675 
L 161.479339 124.74 
L 166.603306 132.999829 
L 171.727273 141.053162 
L 176.85124 148.9 
L 181.975207 156.540342 
L 187.099174 163.974188 
L 192.22314 171.201538 
L 197.347107 178.222393 
L 202.471074 185.036752 
L 207.595041 191.644615 
L 212.719008 198.045983 
L 217.842975 204.240855 
L 222.966942 210.229231 
L 228.090909 216.011111 
L 233.214876 221.586496 
L 238.338843 226.955385 
L 243.46281 232.117778 
L 248.586777 237.073675 
L 253.710744 241.823077 
L 258.834711 246.365983 
L 263.958678 250.702393 
L 269.082645 254.832308 
L 274.206612 258.755726 
L 279.330579 262.47265 
L 284.454545 265.983077 
L 289.578512 269.287009 
L 294.702479 272.384444 
L 299.826446 275.275385 
L 304.950413 277.959829 
L 310.07438 280.437778 
L 315.198347 282.709231 
L 320.322314 284.774188 
L 325.446281 286.63265 
L 330.570248 288.284615 
L 335.694215 289.730085 
L 340.818182 290.96906 
L 345.942149 292.001538 
L 351.066116 292.827521 
L 356.190083 293.447009 
L 361.31405 293.86 
L 366.438017 294.066496 
L 371.561983 294.066496 
L 376.68595 293.86 
L 381.809917 293.447009 
L 386.933884 292.827521 
L 392.057851 292.001538 
L 397.181818 290.96906 
L 402.305785 289.730085 
L 407.429752 288.284615 
L 412.553719 286.63265 
L 417.677686 284.774188 
L 422.801653 282.709231 
L 427.92562 280.437778 
L 433.049587 277.959829 
L 438.173554 275.275385 
L 443.297521 272.384444 
L 448.421488 269.287009 
L 453.545455 265.983077 
L 458.669421 262.47265 
L 463.793388 258.755726 
L 468.917355 254.832308 
L 474.041322 250.702393 
L 479.165289 246.365983 
L 484.289256 241.823077 
L 489.413223 237.073675 
L 494.53719 232.117778 
L 499.661157 226.955385 
L 504.785124 221.586496 
L 509.909091 216.011111 
L 515.033058 210.229231 
L 520.157025 204.240855 
L 525.280992 198.045983 
L 530.404959 191.644615 
L 535.528926 185.036752 
L 540.652893 178.222393 
L 545.77686 171.201538 
L 550.900826 163.974188 
L 556.024793 156.540342 
L 561.14876 148.9 
L 566.272727 141.053162 
L 571.396694 132.999829 
L 576.520661 124.74 
L 581.644628 116.273675 
L 586.768595 107.600855 
L 591.892562 98.721538 
L 597.016529 89.635726 
L 602.140496 80.343419 
L 607.264463 70.844615 
L 612.38843 61.139316 
L 617.512397 51.227521 
L 622.636364 41.109231 
" style="fill:none;stroke:#4682b4;stroke-linecap:square;stroke-width:2;"/>
   </g>
   <g id="line2d_27">
    <path clip-path="url(#p16d4733b6e)" d="M 295.211483 361 
L 299.826446 356.815385 
L 304.950413 352.169231 
L 310.07438 347.523077 
L 315.198347 342.876923 
L 320.322314 338.230769 
L 325.446281 333.584615 
L 330.570248 328.938462 
L 335.694215 324.292308 
L 340.818182 319.646154 
L 345.942149 315 
L 351.066116 310.353846 
L 356.190083 305.707692 
L 361.31405 301.061538 
L 366.438017 296.415385 
L 371.561983 291.769231 
L 376.68595 287.123077 
L 381.809917 282.476923 
L 386.933884 277.830769 
L 392.057851 273.184615 
L 397.181818 268.538462 
L 402.305785 263.892308 
L 407.429752 259.246154 
L 412.553719 254.6 
L 417.677686 249.953846 
L 422.801653 245.307692 
L 427.92562 240.661538 
L 433.049587 236.015385 
L 438.173554 231.369231 
L 443.297521 226.723077 
L 448.421488 222.076923 
L 453.545455 217.430769 
L 458.669421 212.784615 
L 463.793388 208.138462 
L 468.917355 203.492308 
L 474.041322 198.846154 
L 479.165289 194.2 
L 484.289256 189.553846 
L 489.413223 184.907692 
L 494.53719 180.261538 
L 499.661157 175.615385 
L 504.785124 170.969231 
L 509.909091 166.323077 
L 515.033058 161.676923 
L 520.157025 157.030769 
L 525.280992 152.384615 
L 530.404959 147.738462 
L 535.528926 143.092308 
L 540.652893 138.446154 
L 545.77686 133.8 
L 550.900826 129.153846 
L 556.024793 124.507692 
L 561.14876 119.861538 
L 566.272727 115.215385 
L 571.396694 110.569231 
L 576.520661 105.923077 
L 581.644628 101.276923 
L 586.768595 96.630769 
L 591.892562 91.984615 
L 597.016529 87.338462 
L 602.140496 82.692308 
L 607.264463 78.046154 
L 612.38843 73.4 
L 617.512397 68.753846 
L 622.636364 64.107692 
" style="fill:none;stroke:#4682b4;stroke-linecap:square;stroke-width:2;"/>
   </g>
   <g id="patch_3">
    <path d="M 90 315 
L 90 43.2 
" style="fill:none;stroke:#ffffff;stroke-linecap:square;stroke-linejoin:miter;"/>
   </g>
   <g id="patch_4">
    <path d="M 648 315 
L 648 43.2 
" style="fill:none;stroke:#ffffff;stroke-linecap:square;stroke-linejoin:miter;"/>
   </g>
   <g id="patch_5">
    <path d="M 90 315 
L 648 315 
" style="fill:none;stroke:#ffffff;stroke-linecap:square;stroke-linejoin:miter;"/>
   </g>
   <g id="patch_6">
    <path d="M 90 43.2 
L 648 43.2 
" style="fill:none;stroke:#ffffff;stroke-linecap:square;stroke-linejoin:miter;"/>
   </g>
  </g>
 </g>
 <defs>
  <clipPath id="p16d4733b6e">
   <rect height="271.8" width="558" x="90" y="43.2"/>
  </clipPath>
 </defs>
</svg>
