<?xml version="1.0" encoding="utf-8" standalone="no"?>
<!DOCTYPE svg PUBLIC "-//W3C//DTD SVG 1.1//EN"
  "http://www.w3.org/Graphics/SVG/1.1/DTD/svg11.dtd">
<!-- Created with matplotlib (https://matplotlib.org/) -->
<svg height="360pt" version="1.1" viewBox="0 0 720 360" width="720pt" xmlns="http://www.w3.org/2000/svg" xmlns:xlink="http://www.w3.org/1999/xlink">
 <defs>
  <style type="text/css">
*{stroke-linecap:butt;stroke-linejoin:round;}
  </style>
 </defs>
 <g id="figure_1">
  <g id="patch_1">
   <path d="M 0 360 
L 720 360 
L 720 0 
L 0 0 
z
" style="fill:#ffffff;"/>
  </g>
  <g id="axes_1">
   <g id="patch_2">
    <path d="M 90 315 
L 648 315 
L 648 43.2 
L 90 43.2 
z
" style="fill:#e5e5e5;"/>
   </g>
   <g id="matplotlib.axis_1">
    <g id="xtick_1">
     <g id="line2d_1">
      <path clip-path="url(#pb4aa802ae8)" d="M 169.714286 315 
L 169.714286 43.2 
" style="fill:none;stroke:#ffffff;stroke-linecap:square;stroke-width:0.8;"/>
     </g>
     <g id="line2d_2">
      <defs>
       <path d="M 0 0 
L 0 3.5 
" id="m81b9d76604" style="stroke:#555555;stroke-width:0.8;"/>
      </defs>
      <g>
       <use style="fill:#555555;stroke:#555555;stroke-width:0.8;" x="169.714286" xlink:href="#m81b9d76604" y="315"/>
      </g>
     </g>
     <g id="text_1">
      <!-- 0 -->
      <defs>
       <path d="M 31.78125 66.40625 
Q 24.171875 66.40625 20.328125 58.90625 
Q 16.5 51.421875 16.5 36.375 
Q 16.5 21.390625 20.328125 13.890625 
Q 24.171875 6.390625 31.78125 6.390625 
Q 39.453125 6.390625 43.28125 13.890625 
Q 47.125 21.390625 47.125 36.375 
Q 47.125 51.421875 43.28125 58.90625 
Q 39.453125 66.40625 31.78125 66.40625 
z
M 31.78125 74.21875 
Q 44.046875 74.21875 50.515625 64.515625 
Q 56.984375 54.828125 56.984375 36.375 
Q 56.984375 17.96875 50.515625 8.265625 
Q 44.046875 -1.421875 31.78125 -1.421875 
Q 19.53125 -1.421875 13.0625 8.265625 
Q 6.59375 17.96875 6.59375 36.375 
Q 6.59375 54.828125 13.0625 64.515625 
Q 19.53125 74.21875 31.78125 74.21875 
z
" id="DejaVuSans-48"/>
      </defs>
      <g style="fill:#555555;" transform="translate(164.624286 334.1575)scale(0.16 -0.16)">
       <use xlink:href="#DejaVuSans-48"/>
      </g>
     </g>
    </g>
    <g id="xtick_2">
     <g id="line2d_3">
      <path clip-path="url(#pb4aa802ae8)" d="M 568.285714 315 
L 568.285714 43.2 
" style="fill:none;stroke:#ffffff;stroke-linecap:square;stroke-width:0.8;"/>
     </g>
     <g id="line2d_4">
      <g>
       <use style="fill:#555555;stroke:#555555;stroke-width:0.8;" x="568.285714" xlink:href="#m81b9d76604" y="315"/>
      </g>
     </g>
     <g id="text_2">
      <!-- 1 -->
      <defs>
       <path d="M 12.40625 8.296875 
L 28.515625 8.296875 
L 28.515625 63.921875 
L 10.984375 60.40625 
L 10.984375 69.390625 
L 28.421875 72.90625 
L 38.28125 72.90625 
L 38.28125 8.296875 
L 54.390625 8.296875 
L 54.390625 0 
L 12.40625 0 
z
" id="DejaVuSans-49"/>
      </defs>
      <g style="fill:#555555;" transform="translate(563.195714 334.1575)scale(0.16 -0.16)">
       <use xlink:href="#DejaVuSans-49"/>
      </g>
     </g>
    </g>
   </g>
   <g id="matplotlib.axis_2">
    <g id="ytick_1">
     <g id="line2d_5">
      <path clip-path="url(#pb4aa802ae8)" d="M 90 276.171429 
L 648 276.171429 
" style="fill:none;stroke:#ffffff;stroke-linecap:square;stroke-width:0.8;"/>
     </g>
     <g id="line2d_6">
      <defs>
       <path d="M 0 0 
L -3.5 0 
" id="m238ebdd511" style="stroke:#555555;stroke-width:0.8;"/>
      </defs>
      <g>
       <use style="fill:#555555;stroke:#555555;stroke-width:0.8;" x="90" xlink:href="#m238ebdd511" y="276.171429"/>
      </g>
     </g>
     <g id="text_3">
      <!-- 0 -->
      <g style="fill:#555555;" transform="translate(72.82 282.250179)scale(0.16 -0.16)">
       <use xlink:href="#DejaVuSans-48"/>
      </g>
     </g>
    </g>
    <g id="ytick_2">
     <g id="line2d_7">
      <path clip-path="url(#pb4aa802ae8)" d="M 90 82.028571 
L 648 82.028571 
" style="fill:none;stroke:#ffffff;stroke-linecap:square;stroke-width:0.8;"/>
     </g>
     <g id="line2d_8">
      <g>
       <use style="fill:#555555;stroke:#555555;stroke-width:0.8;" x="90" xlink:href="#m238ebdd511" y="82.028571"/>
      </g>
     </g>
     <g id="text_4">
      <!-- 1 -->
      <g style="fill:#555555;" transform="translate(72.82 88.107321)scale(0.16 -0.16)">
       <use xlink:href="#DejaVuSans-49"/>
      </g>
     </g>
    </g>
   </g>
   <g id="LineCollection_1">
    <path clip-path="url(#pb4aa802ae8)" d="M 568.285714 276.171429 
L 568.285714 82.028571 
" style="fill:none;stroke:#4682b4;stroke-dasharray:5.55,2.4;stroke-dashoffset:0;stroke-width:1.5;"/>
   </g>
   <g id="LineCollection_2">
    <path clip-path="url(#pb4aa802ae8)" d="M 169.714286 276.171429 
L 169.714286 82.028571 
" style="fill:none;stroke:#4682b4;stroke-dasharray:5.55,2.4;stroke-dashoffset:0;stroke-width:1.5;"/>
   </g>
   <g id="LineCollection_3">
    <path clip-path="url(#pb4aa802ae8)" d="M 169.714286 276.171429 
L 568.285714 276.171429 
" style="fill:none;stroke:#4682b4;stroke-dasharray:5.55,2.4;stroke-dashoffset:0;stroke-width:1.5;"/>
   </g>
   <g id="LineCollection_4">
    <path clip-path="url(#pb4aa802ae8)" d="M 169.714286 82.028571 
L 568.285714 82.028571 
" style="fill:none;stroke:#4682b4;stroke-dasharray:5.55,2.4;stroke-dashoffset:0;stroke-width:1.5;"/>
   </g>
   <g id="line2d_9">
    <path clip-path="url(#pb4aa802ae8)" d="M 169.714286 276.171429 
L 173.74026 274.21039 
L 177.766234 272.249351 
L 181.792208 270.288312 
L 185.818182 268.327273 
L 189.844156 266.366234 
L 193.87013 264.405195 
L 197.896104 262.444156 
L 201.922078 260.483117 
L 205.948052 258.522078 
L 209.974026 256.561039 
L 214 254.6 
L 218.025974 252.638961 
L 222.051948 250.677922 
L 226.077922 248.716883 
L 230.103896 246.755844 
L 234.12987 244.794805 
L 238.155844 242.833766 
L 242.181818 240.872727 
L 246.207792 238.911688 
L 250.233766 236.950649 
L 254.25974 234.98961 
L 258.285714 233.028571 
L 262.311688 231.067532 
L 266.337662 229.106494 
L 270.363636 227.145455 
L 274.38961 225.184416 
L 278.415584 223.223377 
L 282.441558 221.262338 
L 286.467532 219.301299 
L 290.493506 217.34026 
L 294.519481 215.379221 
L 298.545455 213.418182 
L 302.571429 211.457143 
L 306.597403 209.496104 
L 310.623377 207.535065 
L 314.649351 205.574026 
L 318.675325 203.612987 
L 322.701299 201.651948 
L 326.727273 199.690909 
L 330.753247 197.72987 
L 334.779221 195.768831 
L 338.805195 193.807792 
L 342.831169 191.846753 
L 346.857143 189.885714 
L 350.883117 187.924675 
L 354.909091 185.963636 
L 358.935065 184.002597 
L 362.961039 182.041558 
L 366.987013 180.080519 
L 371.012987 178.119481 
L 375.038961 176.158442 
L 379.064935 174.197403 
L 383.090909 172.236364 
L 387.116883 170.275325 
L 391.142857 168.314286 
L 395.168831 166.353247 
L 399.194805 164.392208 
L 403.220779 162.431169 
L 407.246753 160.47013 
L 411.272727 158.509091 
L 415.298701 156.548052 
L 419.324675 154.587013 
L 423.350649 152.625974 
L 427.376623 150.664935 
L 431.402597 148.703896 
L 435.428571 146.742857 
L 439.454545 144.781818 
L 443.480519 142.820779 
L 447.506494 140.85974 
L 451.532468 138.898701 
L 455.558442 136.937662 
L 459.584416 134.976623 
L 463.61039 133.015584 
L 467.636364 131.054545 
L 471.662338 129.093506 
L 475.688312 127.132468 
L 479.714286 125.171429 
L 483.74026 123.21039 
L 487.766234 121.249351 
L 491.792208 119.288312 
L 495.818182 117.327273 
L 499.844156 115.366234 
L 503.87013 113.405195 
L 507.896104 111.444156 
L 511.922078 109.483117 
L 515.948052 107.522078 
L 519.974026 105.561039 
L 524 103.6 
L 528.025974 101.638961 
L 532.051948 99.677922 
L 536.077922 97.716883 
L 540.103896 95.755844 
L 544.12987 93.794805 
L 548.155844 91.833766 
L 552.181818 89.872727 
L 556.207792 87.911688 
L 560.233766 85.950649 
L 564.25974 83.98961 
L 568.285714 82.028571 
" style="fill:none;stroke:#4682b4;stroke-linecap:square;stroke-width:2;"/>
   </g>
   <g id="patch_3">
    <path d="M 90 315 
L 90 43.2 
" style="fill:none;stroke:#ffffff;stroke-linecap:square;stroke-linejoin:miter;"/>
   </g>
   <g id="patch_4">
    <path d="M 648 315 
L 648 43.2 
" style="fill:none;stroke:#ffffff;stroke-linecap:square;stroke-linejoin:miter;"/>
   </g>
   <g id="patch_5">
    <path d="M 90 315 
L 648 315 
" style="fill:none;stroke:#ffffff;stroke-linecap:square;stroke-linejoin:miter;"/>
   </g>
   <g id="patch_6">
    <path d="M 90 43.2 
L 648 43.2 
" style="fill:none;stroke:#ffffff;stroke-linecap:square;stroke-linejoin:miter;"/>
   </g>
  </g>
 </g>
 <defs>
  <clipPath id="pb4aa802ae8">
   <rect height="271.8" width="558" x="90" y="43.2"/>
  </clipPath>
 </defs>
</svg>
